<?xml version="1.0" standalone="no"?>
<!DOCTYPE svg PUBLIC "-//W3C//DTD SVG 20010904//EN"
 "http://www.w3.org/TR/2001/REC-SVG-20010904/DTD/svg10.dtd">
<svg version="1.0" xmlns="http://www.w3.org/2000/svg"
 width="768.000000pt" height="1024.000000pt" viewBox="0 0 768.000000 1024.000000"
 preserveAspectRatio="xMidYMid meet">

<g transform="translate(0.000000,1024.000000) scale(0.100000,-0.100000)"
fill="#000000" stroke="none">
<path d="M1990 10230 c0 -13 -51 -64 -150 -150 -41 -36 -88 -77 -105 -92 -61
-54 -178 -154 -211 -179 -19 -15 -68 -57 -108 -95 -41 -38 -89 -80 -107 -94
-17 -14 -40 -32 -49 -42 -17 -15 -112 -100 -170 -152 -14 -12 -64 -58 -111
-102 -47 -43 -103 -93 -125 -111 -99 -79 -192 -159 -223 -189 -19 -19 -38 -34
-42 -34 -4 0 -14 -6 -21 -12 -7 -7 -31 -28 -53 -47 -22 -19 -76 -66 -120 -106
-44 -40 -96 -85 -115 -101 -19 -16 -53 -45 -75 -65 -116 -105 -168 -149 -186
-154 -17 -6 -19 -17 -19 -111 l0 -104 30 0 c23 0 42 -12 78 -48 61 -62 162
-178 190 -218 12 -17 46 -56 75 -85 29 -30 99 -106 155 -170 56 -64 116 -129
134 -145 19 -16 52 -51 73 -79 22 -27 64 -78 92 -113 54 -64 65 -101 40 -132
-14 -18 -134 -123 -188 -165 -52 -41 -179 -146 -264 -220 -119 -101 -177 -149
-199 -165 -12 -8 -55 -43 -96 -78 -41 -35 -85 -69 -97 -75 -19 -8 -23 -18 -23
-54 0 -23 4 -43 9 -43 12 0 63 40 79 63 8 10 28 28 47 40 53 36 233 176 237
184 1 4 28 27 59 49 30 23 69 55 85 70 66 65 227 209 257 231 17 13 46 38 63
56 17 17 65 59 105 92 41 33 76 63 77 68 2 4 8 7 14 7 11 0 228 215 228 226 0
15 -117 -50 -140 -77 -12 -15 -51 -29 -79 -29 -35 0 -66 37 -57 67 5 14 -12
37 -64 88 -81 80 -201 219 -219 253 -16 30 -39 58 -125 149 -39 41 -77 84 -85
96 -8 12 -57 65 -109 119 -116 119 -166 190 -158 224 4 13 23 38 43 56 20 18
52 50 72 72 20 21 70 65 111 98 41 33 109 93 151 132 42 39 89 82 105 95 16
13 58 52 94 85 36 34 104 90 150 125 121 92 100 74 241 206 36 33 93 85 129
115 35 30 109 100 164 155 101 100 232 208 286 234 51 25 90 3 165 -93 17 -21
34 -46 39 -54 5 -8 24 -28 43 -45 19 -16 41 -43 49 -60 16 -30 210 -227 225
-227 4 0 11 -10 15 -22 6 -21 36 -53 89 -96 31 -26 105 -122 105 -138 0 -7 8
-18 18 -23 10 -5 35 -38 55 -74 21 -35 49 -70 62 -77 30 -16 49 -65 35 -90
-22 -40 -4 -35 52 15 18 17 61 53 95 80 61 49 76 68 51 64 -48 -6 -64 2 -86
44 -12 23 -37 58 -55 78 -66 75 -132 152 -166 197 -33 44 -120 151 -131 162
-3 3 -19 23 -35 46 -28 39 -106 132 -150 179 -11 12 -54 61 -95 111 -41 49
-80 95 -87 102 -40 41 -63 82 -63 111 0 28 13 45 88 117 l87 84 -92 0 c-58 0
-93 -4 -93 -10z"/>
<path d="M4231 10213 c-6 -16 -28 -39 -47 -53 -20 -13 -49 -36 -64 -50 -15
-14 -53 -47 -86 -75 -32 -27 -92 -81 -134 -120 -79 -73 -187 -169 -255 -226
-22 -19 -42 -36 -45 -39 -3 -3 -34 -30 -70 -60 -36 -30 -78 -66 -94 -80 -17
-14 -75 -65 -130 -115 -56 -49 -107 -94 -114 -100 -48 -35 -257 -235 -246
-235 11 0 111 70 145 102 20 18 43 38 51 43 8 6 33 22 56 37 22 15 46 36 54
46 7 10 24 25 38 32 14 7 56 44 93 82 37 37 70 68 72 68 3 0 17 13 32 28 16
16 60 56 98 89 39 33 96 85 129 116 52 49 86 80 185 162 13 11 38 34 56 50 67
65 127 115 135 115 5 0 31 22 58 48 28 27 75 70 106 97 31 26 56 51 56 56 0 5
-15 9 -34 9 -27 0 -36 -5 -45 -27z"/>
<path d="M1660 9311 c-58 -4 -115 -12 -127 -19 -12 -6 -31 -12 -42 -12 -11 0
-40 -9 -63 -19 -24 -11 -72 -33 -108 -49 -69 -31 -227 -165 -265 -225 -11 -18
-35 -52 -53 -77 -44 -59 -82 -134 -82 -161 0 -12 -9 -36 -20 -53 -14 -23 -22
-64 -30 -143 -15 -161 14 -309 78 -401 11 -15 35 -64 54 -109 20 -44 53 -107
74 -138 22 -31 56 -85 77 -118 21 -34 49 -73 62 -87 12 -14 32 -44 43 -66 12
-23 28 -44 37 -47 19 -8 20 -33 1 -44 -39 -24 -46 -83 -13 -127 23 -32 33 -51
65 -127 21 -50 72 -106 110 -120 39 -15 46 -10 21 15 -83 84 -126 151 -124
191 4 57 6 65 14 65 5 0 7 -21 4 -48 -6 -64 25 -111 85 -130 36 -12 41 -17 36
-37 -4 -16 1 -29 17 -44 16 -15 18 -21 8 -21 -24 -1 21 -29 66 -41 30 -9 52
-8 90 1 l49 13 31 -39 c16 -21 65 -75 108 -120 75 -79 77 -81 66 -112 -6 -18
-15 -32 -19 -32 -4 0 -31 -35 -59 -77 -28 -43 -71 -103 -96 -133 -25 -30 -71
-91 -102 -135 -31 -44 -85 -113 -119 -152 -125 -144 -198 -265 -238 -393 -10
-30 -24 -69 -32 -87 -8 -18 -17 -74 -21 -126 -6 -101 11 -200 64 -357 46 -135
78 -188 256 -419 78 -101 146 -220 182 -316 10 -27 48 -111 85 -185 37 -74 71
-146 75 -160 4 -14 28 -66 52 -117 40 -85 47 -93 81 -103 28 -8 55 -8 112 3
51 10 79 12 87 5 19 -15 92 -129 165 -258 64 -112 85 -167 122 -333 23 -99 74
-220 137 -317 30 -47 68 -114 86 -150 157 -324 256 -498 356 -625 4 -5 57 -77
117 -160 60 -82 118 -159 129 -171 37 -37 210 -303 250 -382 38 -77 161 -355
161 -365 0 -3 19 -36 43 -74 39 -63 42 -73 46 -150 l3 -83 -41 -40 c-44 -44
-50 -60 -26 -80 26 -21 12 -130 -20 -162 -4 -4 -22 -40 -39 -80 -18 -40 -50
-103 -73 -139 -22 -37 -43 -78 -47 -92 -7 -28 -33 -53 -176 -162 -78 -60 -92
-72 -189 -156 -124 -107 -129 -99 62 -99 188 0 164 -8 305 103 33 26 68 47 76
47 10 0 16 9 16 26 0 14 -4 23 -9 20 -5 -3 -12 6 -16 21 -4 17 -2 29 7 34 17
11 68 12 68 1 0 -4 13 -12 29 -18 19 -8 34 -25 47 -53 l18 -42 12 52 c11 50
10 79 -5 79 -4 0 -15 14 -24 30 -18 30 -18 30 12 61 37 36 62 35 76 -6 11 -32
39 -65 170 -199 110 -112 150 -143 159 -121 4 12 17 14 51 11 62 -6 57 10 -6
17 -40 5 -63 15 -104 49 -30 24 -64 51 -77 61 -22 17 -22 19 -5 28 25 15 3 42
-27 34 -15 -5 -17 -4 -7 3 15 11 -2 27 -18 17 -6 -3 -15 4 -21 16 -10 17 -8
23 7 35 20 15 19 14 48 18 11 2 25 5 31 7 15 6 61 -28 115 -83 26 -27 51 -48
56 -48 6 0 18 -9 28 -20 10 -11 23 -20 30 -20 26 0 47 -84 23 -93 -7 -2 -10
-7 -7 -11 4 -4 20 1 37 11 26 15 30 22 25 45 -4 23 -2 28 14 28 10 0 29 -7 41
-16 21 -14 22 -14 22 7 0 12 -13 37 -30 56 -16 18 -30 38 -30 44 0 6 -13 24
-30 41 -16 16 -30 25 -30 19 0 -21 -36 -11 -62 17 -42 46 -81 102 -75 108 3 4
13 -1 22 -10 9 -9 25 -21 36 -26 28 -15 14 15 -17 35 -13 8 -24 24 -24 35 0
23 50 52 69 40 11 -6 11 -9 0 -13 -12 -5 -11 -7 1 -16 8 -5 11 -13 7 -17 -4
-4 -16 1 -27 11 -11 10 -20 13 -20 7 0 -7 5 -12 10 -12 6 0 10 -6 10 -13 0 -7
9 -18 20 -25 17 -10 22 -8 42 18 25 35 44 38 53 10 3 -11 24 -39 46 -62 50
-55 67 -110 44 -144 -8 -13 -20 -24 -25 -24 -6 0 -10 -5 -10 -11 0 -6 13 -1
29 10 15 11 40 25 55 31 14 5 26 16 26 25 0 19 9 19 32 -2 17 -15 18 -15 18 6
0 24 -47 124 -61 129 -5 2 -9 10 -9 18 0 8 -6 14 -12 14 -30 0 -123 187 -133
266 -7 48 -6 50 34 87 40 37 50 60 32 71 -4 3 -14 26 -21 51 -16 56 -24 61
-50 35 -26 -26 -40 -25 -40 3 0 17 -2 19 -10 7 -5 -8 -12 -12 -15 -9 -9 10
-26 180 -20 200 7 20 25 26 25 9 0 -5 5 -10 10 -10 6 0 10 18 10 39 0 25 5 41
14 44 19 7 31 -27 18 -50 -7 -11 -6 -21 4 -31 8 -7 14 -29 14 -48 0 -19 3 -34
8 -34 4 0 25 14 46 32 50 41 65 23 31 -36 -16 -28 -22 -50 -18 -69 6 -30 23
-47 23 -23 0 26 36 39 67 24 15 -7 27 -17 26 -23 -1 -5 7 -24 18 -41 10 -17
19 -38 19 -47 0 -9 5 -19 11 -23 13 -8 29 14 28 36 -4 47 6 60 86 129 54 46
87 67 89 59 16 -52 26 -116 26 -170 1 -67 57 -260 75 -259 6 0 12 15 15 32 3
21 13 35 27 40 20 7 21 6 13 -17 -13 -34 -13 -34 13 -34 13 0 28 -5 35 -12 8
-8 15 -8 25 0 15 13 27 6 27 -15 0 -19 -47 -16 -58 3 -8 15 -11 15 -31 -2 -11
-10 -21 -24 -21 -32 0 -7 -8 -12 -17 -10 -12 2 -19 -4 -21 -20 -5 -34 53 -257
111 -429 l51 -153 43 0 c48 0 62 14 39 39 -9 10 -16 28 -16 42 1 23 1 23 12 4
22 -38 39 -49 57 -38 15 9 17 7 13 -18 -3 -21 0 -29 11 -29 26 0 26 56 0 94
-16 25 -21 43 -17 64 4 19 1 34 -10 45 -20 20 -21 37 -1 37 8 0 17 -12 20 -27
4 -16 10 -36 16 -45 5 -10 9 -27 9 -37 0 -32 16 -33 36 -3 27 41 43 54 59 48
17 -6 21 19 5 29 -5 3 -7 12 -4 20 4 8 11 12 17 8 6 -3 25 11 42 31 l32 38 0
-31 c0 -17 -6 -31 -12 -31 -7 0 -10 -11 -8 -27 4 -25 -1 -30 -37 -46 -31 -13
-42 -24 -47 -47 -3 -17 -9 -30 -13 -30 -4 0 -15 -12 -25 -26 -16 -25 -16 -27
4 -45 16 -15 35 -19 89 -19 68 0 69 0 88 35 24 45 38 45 31 0 l-6 -35 44 0
c33 0 45 4 48 18 4 16 5 16 6 0 1 -16 35 -17 492 -18 l491 0 -8 82 c-13 137
-7 487 15 789 11 156 23 361 26 454 8 223 19 323 51 431 23 80 114 290 132
304 15 11 32 51 27 60 -8 14 8 13 22 -1 7 -7 13 -7 17 -1 3 6 0 17 -9 25 -13
13 -11 17 12 32 25 17 27 17 39 0 15 -20 37 -10 29 13 -7 25 25 42 66 33 l34
-8 -33 -7 c-18 -4 -31 -10 -29 -13 3 -2 49 7 103 22 73 20 103 24 118 17 12
-6 57 -13 101 -17 44 -3 123 -15 175 -26 52 -11 107 -23 123 -26 l27 -5 0 64
0 65 -67 8 c-100 10 -280 11 -343 1 -40 -6 -52 -5 -45 3 6 6 57 16 113 23 80
9 122 9 186 0 101 -15 129 -15 121 -2 -4 6 -1 18 7 27 12 15 10 16 -17 10 -37
-7 -79 18 -55 33 8 5 22 8 30 6 8 -3 25 -7 38 -11 15 -4 24 -2 28 10 8 21 2
26 -35 27 -19 1 -31 6 -31 15 0 16 42 17 58 1 10 -10 12 15 10 122 l-3 135
-27 -3 c-38 -5 -36 17 2 25 l30 6 0 77 c0 53 -4 80 -12 83 -10 4 -10 6 0 6 6
1 12 10 12 21 0 18 -2 19 -20 8 -11 -7 -20 -16 -20 -21 0 -12 -77 -87 -89 -87
-6 0 -11 -7 -11 -15 0 -8 -7 -15 -15 -15 -8 0 -15 -6 -15 -14 0 -7 -10 -16
-22 -20 -32 -8 -38 -7 -38 4 0 6 6 10 14 10 7 0 19 6 25 14 10 12 8 17 -8 26
-28 15 -26 23 9 38 17 6 43 17 59 24 16 7 27 17 24 22 -4 5 1 7 11 3 9 -4 15
-3 11 2 -8 13 5 42 19 40 17 -3 46 12 46 23 0 6 -9 8 -20 5 -22 -6 -54 19 -45
34 12 18 -17 8 -51 -17 -30 -24 -64 -27 -64 -7 0 7 31 29 86 61 23 13 39 69
29 102 -5 15 -2 17 16 13 20 -5 21 -3 15 20 -5 21 -3 27 10 27 41 0 44 18 44
268 l0 240 -31 19 -30 20 30 24 31 24 0 151 0 151 -94 44 c-79 37 -95 49 -105
77 -11 29 -93 106 -147 138 -34 20 63 29 108 10 47 -20 50 -20 76 3 26 22 27
41 7 82 -21 39 -94 152 -103 159 -4 3 -25 31 -46 63 -21 33 -130 155 -243 273
-112 118 -202 214 -199 214 16 0 518 -336 581 -390 87 -74 138 -115 151 -123
11 -7 14 9 14 81 l0 89 -50 24 c-27 13 -50 29 -50 36 0 7 -11 13 -24 13 -15 0
-40 15 -65 40 -23 23 -50 40 -63 40 -13 0 -43 18 -68 40 -25 22 -53 40 -62 40
-10 0 -18 3 -18 8 0 4 -18 18 -40 32 -22 14 -40 28 -40 32 0 5 -6 8 -14 8 -8
0 -20 16 -26 36 -8 22 -22 40 -38 47 -15 6 -35 18 -44 27 -38 34 -48 40 -67
40 -14 0 -19 5 -15 15 5 11 -1 15 -18 15 -29 0 -48 14 -72 54 -13 20 -20 25
-26 16 -6 -9 -9 -9 -15 0 -6 9 -9 9 -15 0 -6 -9 -11 -7 -19 9 -7 12 -16 19
-22 16 -5 -4 -9 -1 -9 5 0 6 -11 15 -25 22 -13 6 -22 16 -18 21 4 6 0 8 -11 4
-16 -6 -56 19 -56 36 0 17 -51 59 -65 53 -8 -3 -15 -1 -15 4 0 5 -11 12 -24
16 -15 3 -31 20 -41 40 -19 40 -41 54 -90 54 -28 0 -38 5 -47 25 -8 17 -17 24
-29 20 -9 -3 -23 0 -30 8 -12 11 -110 44 -116 39 -2 -1 -15 10 -30 24 -15 13
-32 23 -39 20 -7 -3 -28 6 -48 19 -19 13 -37 20 -41 17 -3 -3 -8 4 -12 16 -3
12 -11 22 -19 22 -14 0 -114 92 -114 104 0 4 7 20 15 35 13 26 13 30 -4 45
-10 9 -21 13 -24 9 -4 -3 -7 -2 -7 4 0 9 -67 61 -129 98 -9 6 -43 37 -77 70
-33 33 -105 97 -160 142 -54 46 -107 89 -116 98 -10 8 -20 15 -23 15 -13 0
-65 45 -65 56 0 7 -17 21 -37 31 -20 10 -38 23 -40 29 -2 6 23 40 55 75 32 35
74 81 91 102 18 20 39 37 46 37 7 0 15 9 18 20 3 11 17 24 32 30 15 6 25 14
21 17 -4 4 14 15 39 25 l45 18 48 -35 c26 -19 59 -40 75 -46 15 -6 27 -15 27
-20 0 -10 86 -99 95 -99 7 0 30 -18 61 -49 14 -14 30 -21 40 -17 11 4 18 0 21
-14 3 -11 9 -20 14 -20 5 0 14 -11 19 -24 10 -28 54 -61 69 -52 5 3 11 -1 15
-9 8 -23 29 -18 23 5 -6 23 10 26 38 6 22 -14 75 -31 90 -27 5 1 14 -4 20 -13
6 -8 24 -16 39 -19 15 -2 31 -8 34 -13 4 -5 18 -15 32 -22 62 -32 80 -44 80
-53 0 -5 6 -9 13 -9 7 0 32 -16 55 -36 23 -19 42 -34 42 -31 0 4 66 -63 129
-131 17 -19 31 -37 31 -42 0 -5 9 -12 21 -15 11 -4 25 -18 31 -31 6 -13 15
-24 20 -24 4 0 8 -6 8 -12 0 -7 21 -35 45 -61 25 -26 45 -53 45 -60 0 -16 52
-67 68 -67 11 0 16 -13 13 -32 0 -5 6 -8 14 -8 8 0 27 -18 41 -40 15 -22 30
-40 34 -40 4 0 10 -9 13 -21 3 -11 15 -23 26 -26 12 -3 21 -12 21 -19 0 -8 6
-14 13 -14 8 0 22 -18 33 -40 10 -22 22 -40 27 -40 4 0 7 -7 7 -16 0 -20 59
-76 71 -68 5 3 9 -1 9 -9 0 -16 61 -67 80 -67 7 0 26 -11 42 -25 16 -14 33
-23 38 -20 4 3 13 -8 18 -24 5 -15 26 -38 46 -50 20 -13 36 -27 36 -32 0 -5 6
-9 13 -9 6 0 23 -21 37 -47 14 -26 40 -62 58 -80 l32 -32 0 86 c0 79 -2 88
-27 118 -16 18 -44 52 -63 76 -29 36 -128 151 -265 309 -63 73 -545 551 -665
659 -140 126 -213 174 -363 236 -103 43 -177 81 -232 119 -61 42 -371 344
-399 388 -18 27 -17 29 19 105 65 135 59 199 -22 234 -86 36 -156 72 -182 94
-14 12 -75 54 -136 95 -60 40 -121 82 -135 92 -14 11 -49 36 -78 57 -34 25
-83 80 -140 157 -48 66 -116 149 -150 185 -141 151 -329 242 -627 304 l-110
23 -110 -19 c-154 -27 -304 -97 -395 -186 -66 -64 -231 -181 -330 -235 -30
-16 -94 -51 -142 -77 l-88 -48 -27 46 c-26 44 -27 51 -24 166 3 142 -14 202
-82 288 -23 28 -50 69 -59 90 -23 51 -59 64 -103 38 -19 -11 -36 -16 -40 -13
-8 9 -105 212 -105 221 0 4 -16 23 -36 42 -20 18 -44 50 -54 69 -10 19 -32 49
-50 65 -17 17 -50 57 -72 90 -65 96 -137 164 -228 214 -100 55 -299 113 -370
109 -14 -1 -72 -4 -130 -7z m158 -751 c15 -16 32 -30 39 -30 7 0 13 -4 13 -9
0 -6 21 -13 48 -17 26 -3 52 -11 59 -16 6 -5 28 -6 49 -2 26 5 35 4 30 -5 -6
-10 3 -13 32 -10 4 0 6 7 4 15 -4 21 16 17 23 -6 3 -10 23 -29 43 -42 20 -12
52 -37 70 -54 36 -34 95 -49 113 -28 11 13 63 12 67 -2 1 -5 -5 -17 -13 -27
-8 -9 -15 -19 -15 -22 0 -3 -8 -14 -17 -24 -49 -54 -77 -115 -78 -171 -2 -54
-22 -130 -35 -130 -6 0 -10 -7 -10 -15 0 -8 5 -15 10 -15 6 0 10 -6 10 -13 0
-7 9 -30 19 -51 11 -21 23 -51 26 -67 4 -16 12 -29 18 -29 7 0 19 -12 28 -28
9 -15 43 -40 75 -57 32 -16 70 -40 84 -52 14 -12 36 -31 49 -42 36 -31 59 -24
40 11 -6 11 -8 22 -6 25 8 8 47 -21 53 -39 7 -24 -23 -85 -47 -91 -10 -3 -19
-14 -19 -25 0 -65 -39 -102 -108 -102 -20 0 -49 -7 -64 -14 -16 -8 -48 -18
-73 -21 -42 -7 -45 -6 -55 21 -6 16 -9 36 -7 46 3 10 2 18 -3 18 -4 0 -11 -16
-15 -36 -9 -53 11 -69 83 -68 31 1 58 7 60 13 2 7 31 11 73 11 68 0 71 1 109
40 21 21 41 48 45 60 7 23 53 28 73 8 9 -9 16 -7 32 7 20 18 20 18 -15 47 -26
22 -35 37 -35 59 0 42 -24 95 -52 112 -12 8 -42 18 -66 22 -23 4 -40 11 -36
16 7 12 -16 34 -43 43 -12 4 -29 19 -39 34 -10 15 -27 34 -39 44 -11 9 -29 32
-40 51 -16 30 -17 39 -6 66 15 34 36 32 27 -3 -2 -11 2 -30 9 -40 14 -18 16
-18 32 -3 10 8 44 25 76 37 31 12 70 32 85 44 31 25 79 56 87 56 15 0 1 -53
-21 -80 -15 -17 -24 -33 -21 -36 6 -6 43 14 71 39 26 23 33 22 53 -10 9 -16
32 -43 51 -62 18 -18 31 -39 28 -47 -4 -9 2 -14 17 -15 l22 -2 -22 -4 c-28 -5
-28 -6 1 -38 17 -18 26 -22 29 -13 2 7 2 -8 -1 -34 -3 -33 -1 -48 7 -48 6 0
-4 -14 -24 -31 -19 -17 -35 -35 -35 -41 0 -5 13 -16 29 -26 16 -9 32 -27 34
-39 5 -25 -6 -30 -73 -35 -39 -3 -47 -22 -35 -85 5 -29 9 -32 21 -23 11 10 14
10 13 -1 -1 -23 -59 -108 -106 -158 -62 -64 -30 -78 37 -16 19 18 44 37 55 43
11 6 14 12 8 12 -22 0 -14 19 15 34 15 8 26 18 24 22 -1 4 4 9 13 10 18 3 20
-27 3 -44 -9 -9 -9 -15 0 -24 15 -15 16 -58 2 -58 -5 0 -10 9 -10 20 0 11 -5
20 -11 20 -6 0 -9 -14 -7 -32 2 -25 7 -32 21 -30 25 4 21 -11 -17 -70 -34 -52
-87 -101 -136 -126 -14 -7 -36 -22 -50 -33 l-25 -21 30 7 c17 4 41 17 56 31
14 13 30 24 37 24 16 0 80 45 112 79 15 15 33 45 40 66 16 48 8 148 -15 193
-21 40 -14 62 19 62 21 0 26 -6 33 -37 4 -21 6 -41 5 -45 -1 -4 -4 -65 -6
-134 -4 -112 -2 -130 15 -161 11 -19 17 -43 14 -53 -3 -10 0 -28 7 -40 11 -18
11 -23 -3 -30 -9 -6 -20 -21 -23 -35 -5 -18 -13 -25 -31 -25 -14 0 -25 -6 -25
-12 -1 -17 -104 -88 -127 -88 -11 0 -23 -4 -28 -9 -15 -14 -104 -20 -108 -8
-2 6 -17 11 -33 12 -20 0 -32 7 -38 21 -12 27 -62 58 -81 50 -8 -3 -19 3 -25
14 -6 12 -21 20 -35 20 -16 0 -25 6 -25 15 0 9 -8 19 -17 22 -10 4 -33 17 -52
30 -19 13 -44 23 -57 23 -12 0 -26 5 -29 11 -4 6 -13 8 -21 5 -9 -3 -14 1 -14
13 0 10 7 21 15 25 8 3 15 17 15 31 0 15 6 25 15 25 8 0 19 9 25 20 8 15 8 20
-2 20 -7 0 -19 -9 -26 -20 -7 -11 -19 -20 -27 -20 -8 0 -20 -12 -28 -26 l-14
-26 -15 24 c-21 32 -31 68 -20 68 12 0 4 38 -10 46 -5 4 -22 -7 -36 -24 -27
-31 -96 -51 -107 -31 -4 5 -14 9 -24 9 -27 0 -54 36 -54 73 0 17 -2 26 -4 20
-6 -18 -23 -16 -23 2 0 8 7 15 15 15 27 0 17 44 -15 65 -16 11 -31 29 -32 40
-2 14 -14 23 -40 29 -33 8 -36 12 -33 43 2 24 -2 33 -14 34 -13 1 -12 2 2 6
33 9 73 33 55 33 -10 0 -18 3 -18 8 0 16 18 29 73 56 32 15 84 52 115 82 31
30 60 54 65 54 15 0 6 29 -10 32 -14 3 -7 11 24 32 41 27 48 46 17 46 -13 0
-19 24 -15 58 3 18 -65 19 -84 1 -10 -10 -65 -13 -65 -3 0 3 5 14 10 24 16 29
-32 38 -91 17 -26 -10 -53 -17 -60 -17 -8 -1 -32 -9 -54 -20 -22 -11 -47 -19
-56 -20 -9 0 -22 -7 -29 -15 -18 -22 -37 -18 -44 8 -10 39 -7 67 9 67 12 0 13
4 3 25 -6 13 -15 22 -19 19 -5 -3 -9 11 -9 30 0 20 -4 36 -10 36 -5 0 -10 5
-10 10 0 21 20 9 26 -15 3 -14 12 -25 20 -25 16 0 19 16 4 25 -6 4 -8 10 -5
14 2 5 -4 16 -14 25 -32 29 -25 194 9 203 10 3 24 18 31 34 14 35 6 50 -11 20
-11 -21 -40 -29 -40 -11 0 6 5 10 10 10 6 0 10 7 10 15 0 8 5 15 10 15 17 0
11 28 -7 39 -16 9 -16 12 -3 21 8 5 33 10 55 11 36 0 38 1 18 11 -13 6 -23 17
-23 25 0 7 -8 13 -17 13 -16 1 -16 2 2 16 16 12 18 18 7 34 -17 28 -15 40 8
40 11 0 20 6 20 13 0 14 64 46 93 46 11 1 31 -12 45 -29z m602 -166 c0 -2 -9
-4 -21 -4 -11 0 -18 4 -14 10 5 8 35 3 35 -6z m159 -111 c33 -28 16 -64 -54
-116 -33 -24 -73 -58 -89 -75 -24 -26 -31 -29 -42 -17 -8 7 -14 16 -14 19 0 6
83 134 115 178 23 32 54 35 84 11z m61 -153 c0 -21 -28 -76 -48 -94 -21 -18
-21 -18 -15 18 3 22 1 42 -7 50 -6 9 -9 20 -5 26 8 13 75 13 75 0z m-126 -65
c-7 -17 -20 -20 -28 -6 -7 10 3 21 20 21 8 0 11 -6 8 -15z m-137 -27 c-3 -8
-6 -5 -6 6 -1 11 2 17 5 13 3 -3 4 -12 1 -19z m97 -17 c10 -11 28 -21 40 -23
17 -3 14 -7 -21 -26 -43 -22 -83 -29 -83 -13 0 17 30 81 39 81 4 0 16 -9 25
-19z m-474 -245 c0 -15 -21 -26 -52 -26 -11 0 -43 -16 -69 -35 -27 -19 -52
-35 -57 -35 -4 0 -19 -10 -33 -22 -44 -40 -64 -47 -103 -38 -46 10 -53 17 -38
32 7 7 12 24 12 39 0 36 23 53 73 54 23 1 55 6 70 13 16 7 40 12 55 13 15 0
36 4 47 9 34 14 95 12 95 -4z m40 -83 c0 -8 -83 -82 -108 -97 -10 -6 -10 -2 0
18 8 20 8 32 0 51 -7 14 -12 28 -12 30 0 3 27 5 60 5 33 0 60 -3 60 -7z m-160
-48 c-7 -8 -16 -12 -21 -9 -13 8 -1 24 18 24 13 0 13 -3 3 -15z m-220 -35 c0
-5 -5 -10 -11 -10 -5 0 -7 5 -4 10 3 6 8 10 11 10 2 0 4 -4 4 -10z m170 -15
c7 -8 24 -15 39 -15 25 -1 25 -1 7 -15 -11 -8 -37 -15 -58 -15 -30 0 -38 4
-38 18 0 18 18 42 31 42 4 0 12 -7 19 -15z m-404 -143 c-9 -9 -46 30 -46 47 1
11 8 8 26 -13 14 -15 23 -31 20 -34z m1510 27 c3 -5 -9 -9 -25 -9 -20 0 -31 5
-31 14 0 15 46 11 56 -5z m-1468 -81 c7 -7 12 -20 12 -29 0 -23 54 -68 77 -65
10 2 12 1 6 -1 -7 -3 -13 -9 -13 -15 0 -17 -53 2 -82 30 -20 18 -28 36 -28 59
0 35 8 41 28 21z m121 -167 c11 -7 9 -10 -8 -16 -22 -7 -41 0 -41 16 0 11 30
12 49 0z m-17 -56 c4 -17 1 -25 -8 -25 -8 0 -14 11 -14 25 0 14 4 25 9 25 5 0
11 -11 13 -25z m93 -11 c0 -10 -8 -20 -17 -22 -18 -3 -26 27 -11 42 12 11 28
0 28 -20z m1356 -457 c-13 -13 -26 -3 -16 12 3 6 11 8 17 5 6 -4 6 -10 -1 -17z
m-41 -31 c0 -15 -10 -19 -67 -31 -19 -4 -33 -3 -33 3 0 12 24 22 56 22 13 0
24 5 24 10 0 6 5 10 10 10 6 0 10 -6 10 -14z m88 -30 c-31 -41 -83 -79 -138
-101 -14 -6 -39 -18 -57 -28 -40 -21 -60 -23 -44 -3 6 7 9 21 5 30 -5 12 0 16
22 15 24 0 26 -2 10 -8 -16 -6 -17 -8 -4 -13 9 -4 24 -1 34 6 11 7 31 16 45
19 22 6 26 12 23 35 -3 23 3 31 31 46 18 10 38 16 43 12 5 -3 17 3 27 14 34
37 36 20 3 -24z m-398 -16 c0 -5 -2 -10 -4 -10 -3 0 -8 5 -11 10 -3 6 -1 10 4
10 6 0 11 -4 11 -10z m3397 -66 c-3 -3 -12 -4 -19 -1 -8 3 -5 6 6 6 11 1 17
-2 13 -5z m-3257 -44 c0 -5 -7 -10 -15 -10 -8 0 -15 5 -15 10 0 6 7 10 15 10
8 0 15 -4 15 -10z m1877 -91 c123 -95 201 -202 288 -397 61 -134 63 -159 18
-217 -19 -26 -40 -44 -46 -42 -7 2 -21 21 -32 43 -11 21 -35 67 -53 102 l-33
63 -34 -21 c-19 -12 -47 -23 -62 -25 -16 -2 -29 -4 -30 -4 -2 -1 42 -41 96
-91 114 -103 118 -117 63 -194 -51 -71 -61 -73 -129 -22 -33 24 -90 70 -129
102 -150 128 -204 167 -218 155 -10 -8 -16 -5 -25 13 -13 23 -9 34 25 85 3 3
113 -80 282 -212 146 -113 130 -107 163 -67 32 38 36 55 15 67 -7 4 -55 47
-107 95 -149 137 -374 318 -382 307 -2 -2 -20 -28 -41 -56 -33 -46 -56 -66
-56 -48 0 10 42 89 62 118 23 32 41 34 75 7 27 -21 48 -27 38 -11 -3 6 -6 40
-7 78 -1 94 33 158 107 196 53 28 92 21 152 -24z m-558 -326 c28 -46 51 -89
51 -97 0 -8 -27 -36 -60 -62 -33 -26 -60 -51 -60 -55 0 -14 84 -128 95 -128 5
-1 35 17 67 40 32 22 62 39 67 37 9 -3 141 -146 141 -152 0 -2 -27 -26 -60
-53 -33 -26 -60 -53 -60 -59 0 -22 93 -133 106 -126 7 4 44 37 83 75 39 37 76
67 82 67 17 0 139 -122 139 -139 0 -42 -284 -301 -330 -301 -8 0 -34 -20 -57
-44 -45 -48 -162 -119 -221 -136 -20 -5 -58 -10 -84 -10 -38 0 -55 7 -95 37
-67 50 -22 2 55 -59 34 -27 60 -53 58 -57 -8 -13 -202 -131 -215 -131 -7 0
-36 20 -64 45 -107 92 -250 211 -295 246 -26 21 -78 66 -115 100 l-68 64 -44
154 c-41 141 -53 201 -40 201 7 0 482 -377 545 -432 30 -27 106 -84 120 -92 8
-4 -5 10 -30 33 -25 22 -48 41 -51 41 -3 0 -21 15 -40 33 -19 17 -54 48 -78
67 -211 168 -251 215 -251 297 0 39 44 144 81 191 43 57 116 126 172 164 32
21 55 43 52 47 -2 5 17 28 43 53 69 64 301 234 308 225 1 -1 24 -39 53 -84z
m-893 -818 c78 -233 118 -335 131 -335 4 0 31 14 61 31 60 34 53 36 129 -35
24 -22 43 -42 43 -46 0 -4 -28 -20 -62 -35 -35 -15 -73 -34 -86 -42 l-23 -14
22 -37 c38 -63 79 -137 79 -143 0 -13 -202 -121 -209 -113 -4 5 -29 75 -55
156 -30 91 -67 180 -96 230 -26 46 -50 93 -54 106 -4 12 -27 61 -51 109 -46
95 -110 286 -100 302 12 20 160 111 175 109 10 -2 42 -83 96 -243z m-385 -767
c339 -427 414 -512 604 -678 33 -29 128 -117 211 -196 152 -144 278 -297 457
-552 90 -128 187 -320 187 -370 0 -20 4 -51 9 -69 18 -64 125 -208 233 -315
59 -59 108 -113 108 -121 0 -8 11 -19 25 -25 14 -7 50 -30 80 -53 41 -31 57
-51 64 -78 22 -81 32 -169 31 -250 -2 -171 6 -426 14 -440 6 -9 5 -12 -2 -7
-6 3 -13 -6 -17 -23 -3 -16 -14 -32 -23 -36 -14 -5 -14 -7 -2 -16 12 -9 11
-10 -4 -5 -13 4 -42 -9 -90 -42 -64 -43 -73 -47 -95 -36 -14 7 -32 28 -40 46
-22 45 -55 60 -119 53 -50 -6 -54 -5 -82 27 -17 18 -42 44 -55 58 -14 14 -25
30 -25 35 0 6 -18 33 -40 60 -90 113 -120 155 -180 260 -35 61 -86 157 -113
215 -27 58 -67 143 -89 190 -58 125 -173 455 -218 630 -31 118 -116 315 -200
460 -20 36 -52 110 -70 165 -91 282 -113 327 -217 449 -28 32 -69 93 -92 135
-23 42 -59 104 -81 138 -21 34 -71 124 -110 200 -40 76 -80 149 -90 163 -28
40 -59 120 -46 120 2 0 37 -42 77 -92z m-118 -174 c-3 -10 0 -20 9 -25 8 -5
23 -30 33 -56 10 -26 21 -50 24 -53 3 -3 13 -18 21 -35 8 -16 25 -39 38 -50
13 -11 24 -33 25 -48 1 -15 7 -31 14 -35 7 -4 18 -25 25 -47 7 -23 20 -40 28
-40 24 -1 41 -15 39 -33 -3 -21 32 -82 47 -82 6 0 11 -10 11 -22 -1 -51 5 -65
37 -100 31 -33 41 -59 37 -94 -1 -13 -69 -43 -113 -50 -27 -5 -33 -10 -33 -30
0 -16 6 -24 18 -24 9 0 17 -7 17 -17 0 -15 2 -14 15 3 8 10 15 26 15 34 0 15
42 40 67 40 7 0 13 5 13 10 0 6 9 10 21 10 11 0 34 9 49 20 17 12 31 16 35 11
3 -6 -1 -49 -10 -96 -12 -62 -14 -94 -7 -115 6 -15 8 -31 5 -33 -10 -10 9 -47
23 -47 8 0 12 -5 9 -10 -5 -8 -12 -7 -22 1 -12 10 -16 10 -24 -2 -5 -8 -6 -21
-2 -29 3 -8 6 -26 5 -40 0 -14 4 -30 9 -36 5 -6 7 -18 4 -26 -3 -8 6 -25 20
-38 14 -13 25 -34 25 -46 0 -13 5 -26 10 -29 6 -3 10 0 10 7 0 7 9 -5 20 -27
11 -22 20 -41 20 -42 0 -2 -9 -3 -20 -3 -11 0 -20 -7 -20 -15 0 -8 6 -15 14
-15 18 0 41 -27 27 -32 -6 -2 -7 -17 -2 -39 5 -20 5 -43 1 -50 -13 -22 0 -68
21 -74 20 -7 26 -25 8 -25 -6 0 -9 -6 -7 -12 3 -7 -5 -17 -16 -23 -15 -7 -22
-22 -24 -48 -2 -21 -6 -36 -10 -33 -4 2 -13 -3 -21 -11 -12 -13 -11 -14 8 -8
14 4 21 2 21 -7 0 -24 -21 -88 -29 -88 -13 0 -56 54 -53 68 2 6 -1 12 -7 12
-5 0 -11 -6 -14 -12 -2 -7 -2 -2 0 12 3 19 -2 28 -19 35 -16 7 -22 17 -20 33
3 17 -2 25 -18 29 -18 5 -21 11 -16 33 4 22 1 29 -14 33 -12 3 -20 14 -20 26
0 11 -9 26 -20 33 -11 7 -20 18 -20 25 0 7 -8 13 -19 13 -10 0 -21 9 -24 20
-3 11 -13 23 -24 27 -23 9 -43 28 -43 42 0 6 -8 11 -18 11 -10 0 -26 15 -37
36 -10 19 -33 48 -49 63 -37 32 -116 147 -116 166 0 8 -5 17 -11 21 -8 4 -7 9
2 15 10 6 11 9 2 9 -7 0 -13 5 -13 10 0 6 11 10 25 10 14 0 25 5 25 10 0 6 -5
10 -11 10 -6 0 -17 7 -25 15 -9 8 -13 15 -9 15 3 0 -1 10 -9 22 -9 12 -16 30
-16 40 0 9 -9 22 -20 28 -14 8 -19 17 -15 30 3 10 -1 24 -8 32 -15 15 -19 98
-5 98 4 0 8 -7 8 -16 0 -36 25 -4 30 38 5 37 2 48 -12 57 -10 6 -18 17 -18 25
0 8 -8 17 -17 21 -17 7 -17 8 0 14 17 6 17 8 3 20 -11 9 -16 10 -16 2 0 -25
-25 -9 -26 17 -3 56 -8 73 -22 67 -9 -3 -12 1 -7 15 5 14 2 20 -9 20 -9 0 -16
7 -16 16 0 9 -5 12 -11 8 -9 -5 -10 6 -7 40 6 46 5 47 -20 44 -21 -2 -27 2
-33 25 -4 16 -13 34 -19 42 -8 10 -8 15 0 20 6 4 10 18 8 33 -2 20 4 28 29 41
18 9 33 23 33 32 0 9 27 35 60 58 33 23 65 47 72 54 26 25 73 56 85 57 7 0 10
-7 6 -16z m4641 -50 c3 -9 6 -23 6 -31 0 -14 -2 -14 -19 1 -11 10 -17 24 -14
32 7 19 19 18 27 -2z m51 -44 c3 -5 1 -10 -4 -10 -6 0 -11 5 -11 10 0 6 2 10
4 10 3 0 8 -4 11 -10z m-238 -176 c-3 -3 -12 -4 -19 -1 -8 3 -5 6 6 6 11 1 17
-2 13 -5z m-47 -29 c0 -8 -7 -15 -16 -15 -8 0 -22 -7 -31 -15 -12 -13 -18 -13
-31 -3 -13 11 -13 13 8 16 13 2 30 10 37 18 19 18 33 18 33 -1z m-97 -55 c-3
-11 -9 -20 -14 -20 -5 0 -9 -6 -9 -13 0 -11 -18 -24 -62 -44 -3 -2 -5 5 -4 14
1 10 16 25 33 33 18 8 34 23 36 33 3 9 10 17 15 17 6 0 8 -9 5 -20z m234 -2
c-3 -8 -6 -5 -6 6 -1 11 2 17 5 13 3 -3 4 -12 1 -19z m163 -29 c0 -13 -29 -31
-40 -24 -11 7 -14 38 -4 48 7 6 44 -14 44 -24z m-555 -8 c-4 -12 -15 -21 -27
-21 -19 0 -19 1 3 24 27 28 34 27 24 -3z m50 19 c-3 -5 -11 -10 -16 -10 -6 0
-7 5 -4 10 3 6 11 10 16 10 6 0 7 -4 4 -10z m5 -60 c0 -5 7 -10 15 -10 8 0 15
-2 15 -5 0 -5 -49 -55 -54 -55 -7 0 -16 62 -10 71 7 12 34 11 34 -1z m-100
-20 c0 -5 -4 -10 -10 -10 -5 0 -10 5 -10 10 0 6 5 10 10 10 6 0 10 -4 10 -10z
m490 -10 c0 -5 -7 -10 -15 -10 -8 0 -15 5 -15 10 0 6 7 10 15 10 8 0 15 -4 15
-10z m-174 -41 c3 -6 1 -16 -5 -22 -6 -6 -11 -19 -11 -28 0 -19 -17 -35 -27
-26 -3 3 -2 24 2 46 7 40 26 54 41 30z m-256 -9 c0 -5 -2 -10 -4 -10 -3 0 -8
5 -11 10 -3 6 -1 10 4 10 6 0 11 -4 11 -10z m404 -14 c-21 -15 -30 -14 -19 3
3 6 14 11 23 11 13 0 13 -2 -4 -14z m-204 -20 c0 -2 -7 -6 -15 -10 -8 -3 -15
-1 -15 4 0 6 7 10 15 10 8 0 15 -2 15 -4z m-315 -16 c-3 -5 -10 -10 -16 -10
-5 0 -9 5 -9 10 0 6 7 10 16 10 8 0 12 -4 9 -10z m-120 -15 c30 -13 30 -13 4
-14 -14 -1 -34 6 -45 14 -25 19 -1 19 41 0z m95 -20 c0 -8 -7 -15 -15 -15 -9
0 -12 6 -9 15 4 8 10 15 15 15 5 0 9 -7 9 -15z m111 5 c5 0 9 -5 9 -11 0 -15
-43 -7 -48 10 -3 10 0 12 12 8 10 -4 22 -7 27 -7z m399 0 c-20 -13 -40 -13
-40 0 0 6 12 10 28 10 21 0 24 -2 12 -10z m-550 -30 c0 -5 -5 -10 -11 -10 -5
0 -7 5 -4 10 3 6 8 10 11 10 2 0 4 -4 4 -10z m-30 -37 c0 -5 -14 -24 -30 -43
-16 -19 -30 -31 -30 -27 0 5 -10 1 -22 -7 -25 -18 -48 -21 -48 -6 0 5 11 12
25 16 16 4 25 13 25 25 0 12 7 19 19 19 10 0 21 7 25 15 5 15 36 21 36 8z m82
-52 c-2 -17 1 -31 7 -31 6 0 11 -5 11 -10 0 -6 -6 -10 -12 -9 -7 1 -21 -1 -32
-6 -22 -10 -40 13 -24 32 5 7 8 20 4 28 -10 27 3 45 27 36 17 -7 21 -15 19
-40z m338 12 c0 -10 -11 -23 -25 -30 -20 -9 -25 -8 -25 3 0 8 -4 14 -10 14 -5
0 -10 5 -10 11 0 8 6 7 16 -2 15 -12 18 -11 28 4 14 22 26 22 26 0z m-420 -38
c-7 -9 -15 -13 -18 -10 -3 2 1 11 8 20 7 9 15 13 18 10 3 -2 -1 -11 -8 -20z
m430 -15 c0 -5 -7 -10 -16 -10 -8 0 -12 5 -9 10 3 6 10 10 16 10 5 0 9 -4 9
-10z m-610 -27 c0 -13 3 -14 12 -5 12 12 48 17 48 6 0 -16 -48 -46 -81 -49
-14 -2 -15 3 -6 31 11 36 27 46 27 17z m150 -23 c4 0 10 -7 14 -15 9 -24 -27
-18 -43 6 -11 19 -11 21 4 15 9 -3 20 -6 25 -6z m-59 -43 c-14 -14 -15 -40 -1
-32 20 12 9 -16 -17 -46 -25 -28 -28 -29 -40 -13 -18 25 -16 33 6 27 23 -6 39
16 20 28 -12 8 -11 12 4 23 9 7 17 20 17 28 0 22 15 32 18 13 2 -9 -1 -22 -7
-28z m-3291 -17 c0 -11 -4 -20 -10 -20 -5 0 -10 9 -10 20 0 11 5 20 10 20 6 0
10 -9 10 -20z m3120 -40 c0 -5 -7 -10 -15 -10 -8 0 -15 -4 -15 -9 0 -13 -32
-23 -43 -12 -5 5 0 15 14 25 26 18 59 21 59 6z m454 -22 c5 -21 3 -26 -7 -22
-9 3 -12 14 -9 30 5 29 7 28 16 -8z m186 12 c0 -5 -4 -10 -10 -10 -5 0 -10 5
-10 10 0 6 5 10 10 10 6 0 10 -4 10 -10z m-26 -25 c3 -9 0 -15 -9 -15 -16 0
-27 14 -18 24 10 10 21 7 27 -9z m-659 -41 c6 0 19 -5 29 -9 13 -6 21 -4 24 3
5 15 32 16 32 2 0 -5 -4 -10 -10 -10 -5 0 -10 -4 -10 -10 0 -16 27 -12 34 5 3
8 10 15 16 15 13 0 13 -37 0 -45 -20 -12 -118 14 -144 38 -32 30 -34 42 -3 25
12 -7 27 -13 32 -14z m1180 -16 c-2 -32 -25 -35 -25 -4 0 15 6 26 13 26 8 0
13 -10 12 -22z m-652 -3 c-3 -9 -8 -14 -10 -11 -3 3 -2 9 2 15 9 16 15 13 8
-4z m-673 -22 c0 -13 -3 -13 -15 -3 -8 7 -12 16 -9 21 8 13 24 1 24 -18z m103
-10 c-7 -3 -13 -9 -13 -15 0 -22 -40 -44 -72 -39 -4 0 -2 15 4 31 8 24 14 29
30 24 14 -4 21 0 25 16 5 20 7 20 22 5 12 -13 13 -19 4 -22z m631 7 c-6 -6
-10 -2 -11 12 -2 16 1 18 10 9 7 -7 8 -14 1 -21z m-874 -40 c11 -22 25 -40 30
-40 5 0 7 -7 3 -15 -3 -9 2 -24 11 -34 23 -25 9 -32 -40 -21 -57 14 -64 12
-73 -12 -9 -24 6 -59 69 -163 17 -27 40 -68 50 -90 11 -22 27 -49 35 -59 16
-21 22 -67 6 -50 -5 5 -32 54 -61 109 -57 108 -81 142 -160 225 -44 46 -49 56
-36 65 9 7 13 20 9 33 -9 34 3 26 31 -23 30 -50 41 -58 26 -20 -8 21 -5 27 30
52 28 20 38 33 34 45 -5 17 2 38 11 38 3 0 14 -18 25 -40z m40 30 c0 -5 -5
-10 -11 -10 -5 0 -7 5 -4 10 3 6 8 10 11 10 2 0 4 -4 4 -10z m1266 -14 c3 -8
15 -17 27 -20 20 -5 21 -7 5 -22 -10 -10 -21 -13 -29 -8 -8 4 -22 9 -32 9 -25
2 -47 25 -24 25 10 0 20 7 23 15 8 19 23 19 30 1z m-886 -11 c0 -8 -4 -15 -10
-15 -5 0 -7 7 -4 15 4 8 8 15 10 15 2 0 4 -7 4 -15z m1056 -6 c13 -11 18 -11
21 -1 3 6 10 9 16 5 7 -4 21 -7 32 -8 11 0 21 -8 23 -19 4 -16 0 -18 -27 -13
-29 6 -45 -7 -19 -15 9 -3 9 -6 -1 -12 -8 -5 -14 -1 -18 12 -5 21 -28 32 -50
25 -18 -6 -16 -23 2 -23 8 0 15 -5 15 -11 0 -18 -34 -5 -46 19 -6 12 -14 19
-17 16 -4 -4 -14 -1 -23 7 -15 12 -14 15 10 25 35 14 60 12 82 -7z m-1546 2
c0 -5 -9 -11 -20 -14 -22 -6 -28 8 -7 16 19 8 27 8 27 -2z m167 -21 c0 -35
-12 -39 -27 -10 -12 22 -6 40 14 40 7 0 13 -12 13 -30z m394 -3 c-8 -8 -11 -7
-11 4 0 20 13 34 18 19 3 -7 -1 -17 -7 -23z m359 13 c-6 -11 -12 -20 -14 -20
-2 0 -2 9 1 20 3 11 9 20 15 20 5 0 4 -9 -2 -20z m-540 -10 c0 -11 -7 -23 -15
-27 -21 -8 -28 1 -20 26 8 27 35 27 35 1z m1088 -60 c0 -20 -4 -30 -14 -30 -8
0 -23 -9 -34 -20 -11 -11 -22 -20 -23 -20 -6 0 -7 72 -1 81 3 5 15 4 27 -3 20
-10 21 -10 9 5 -18 22 -6 40 17 27 11 -5 18 -21 19 -40z m-1158 20 c0 -5 -5
-10 -11 -10 -5 0 -7 5 -4 10 3 6 8 10 11 10 2 0 4 -4 4 -10z m765 -20 c0 -8
-14 -17 -35 -21 -44 -9 -47 -6 -18 20 25 24 53 24 53 1z m-720 -10 c-3 -5 -10
-10 -16 -10 -5 0 -9 5 -9 10 0 6 7 10 16 10 8 0 12 -4 9 -10z m460 -10 c3 -5
2 -10 -4 -10 -5 0 -13 5 -16 10 -3 6 -2 10 4 10 5 0 13 -4 16 -10z m491 -16
c-8 -29 6 -37 30 -19 33 25 43 18 37 -21 -5 -27 -2 -39 10 -45 21 -12 10 -47
-17 -51 -13 -2 -22 -11 -24 -26 -3 -20 -8 -22 -32 -17 -25 6 -28 4 -23 -14 7
-28 -22 -28 -37 -1 -6 11 -19 20 -29 20 -10 0 -23 6 -29 13 -8 9 -4 12 17 13
48 2 81 14 81 30 0 8 -7 17 -16 21 -8 3 -13 12 -10 19 3 9 -6 15 -30 20 -19 3
-37 11 -41 17 -4 6 3 8 21 3 24 -6 26 -4 26 22 0 36 5 41 42 40 25 -1 29 -4
24 -24z m-326 -14 c0 -5 -4 -10 -9 -10 -5 0 -18 -3 -28 -6 -16 -5 -16 -4 1 10
23 18 36 20 36 6z m-896 -6 c31 -12 15 -49 -24 -59 -19 -4 -28 -1 -37 14 -11
18 -10 22 15 35 33 18 27 17 46 10z m760 -50 c6 -16 0 -34 -12 -34 -4 0 -8 11
-8 25 -2 28 11 34 20 9z m139 -4 c-3 -11 -9 -20 -14 -20 -5 0 -9 -7 -9 -15 0
-12 -5 -12 -32 -1 -38 17 -49 35 -16 29 13 -2 32 3 43 11 27 21 34 20 28 -4z
m-496 -35 c-5 -32 -2 -52 10 -74 14 -24 15 -31 4 -45 -7 -9 -19 -16 -26 -16
-8 0 -15 -6 -18 -12 -2 -7 -3 -5 -2 4 2 9 -3 25 -11 35 -16 21 -18 43 -4 43 6
0 10 -9 10 -21 0 -11 5 -17 10 -14 16 10 12 43 -7 53 -15 9 -14 12 5 40 12 16
22 35 22 41 0 6 3 11 6 11 4 0 4 -20 1 -45z m-67 9 c0 -8 -4 -12 -10 -9 -5 3
-10 10 -10 16 0 5 5 9 10 9 6 0 10 -7 10 -16z m-273 -40 c-9 -9 -28 6 -21 18
4 6 10 6 17 -1 6 -6 8 -13 4 -17z m727 1 c20 -8 36 -22 36 -30 0 -19 -9 -19
-32 2 -10 9 -21 13 -25 9 -4 -4 -2 -10 4 -14 13 -8 11 -78 -2 -75 -6 1 -12 13
-13 25 -5 30 -30 58 -54 58 -10 0 -18 5 -18 11 0 6 8 8 19 4 10 -3 24 1 31 10
15 18 10 18 54 0z m-1034 -21 c0 -8 -4 -14 -10 -14 -5 0 -10 2 -10 4 0 2 -3
12 -6 20 -5 12 -2 15 10 10 9 -3 16 -12 16 -20z m917 20 c-3 -3 -12 -4 -19 -1
-8 3 -5 6 6 6 11 1 17 -2 13 -5z m213 -15 c0 -5 -4 -9 -10 -9 -5 0 -10 7 -10
16 0 8 5 12 10 9 6 -3 10 -10 10 -16z m180 -13 c0 -3 -4 -8 -10 -11 -5 -3 -10
-1 -10 4 0 6 5 11 10 11 6 0 10 -2 10 -4z m-41 -21 c9 5 43 -7 59 -20 7 -6
-28 -75 -37 -75 -13 0 -14 13 -2 26 5 5 12 19 16 31 5 18 3 22 -9 17 -25 -10
-66 5 -66 22 0 13 3 14 15 4 8 -6 19 -9 24 -5z m-1295 -21 c4 -15 5 -29 1 -32
-3 -3 -5 0 -5 6 0 6 -9 14 -20 17 -25 8 -26 35 -1 35 12 0 21 -9 25 -26z m456
-10 c0 -12 -4 -12 -25 2 -14 9 -22 20 -19 25 8 13 44 -9 44 -27z m-520 0 c0
-20 -7 -17 -20 6 -9 16 -8 18 5 14 8 -4 15 -12 15 -20z m440 16 c0 -5 -13 -16
-30 -25 -33 -17 -38 -11 -13 17 17 19 43 24 43 8z m797 -6 c-3 -3 -12 -4 -19
-1 -8 3 -5 6 6 6 11 1 17 -2 13 -5z m258 -12 c24 -21 31 -76 8 -68 -8 3 -18 6
-23 6 -5 0 -8 14 -8 31 1 17 -5 35 -13 40 -12 7 -12 9 1 9 8 -1 24 -8 35 -18z
m-1335 -17 c13 -14 21 -27 18 -30 -5 -5 -58 40 -58 50 0 12 18 3 40 -20z
m-242 -38 c6 -22 7 -49 2 -67 -10 -35 -12 -35 56 -13 57 17 70 33 54 63 -15
27 -12 38 4 17 8 -10 22 -17 33 -15 12 2 19 -4 21 -19 2 -14 -2 -23 -10 -23
-7 -1 -24 -10 -37 -21 -20 -17 -25 -30 -25 -70 0 -49 0 -49 -33 -49 -36 0 -40
-10 -24 -67 11 -38 -5 -103 -26 -103 -15 0 -18 16 -4 22 5 2 5 13 0 26 -6 15
-17 22 -33 22 -18 0 -24 -4 -20 -15 4 -8 1 -15 -5 -15 -6 0 -11 7 -11 15 0 16
-26 21 -32 6 -1 -4 -14 -12 -28 -16 -25 -8 -25 -8 -6 14 19 21 19 21 -10 21
-27 1 -28 1 -10 15 15 11 17 17 7 29 -6 8 -21 12 -31 9 -11 -3 -20 -1 -20 5 0
14 28 35 38 28 6 -3 17 5 26 19 9 14 24 25 34 25 10 0 23 5 29 11 6 6 17 8 24
4 9 -6 8 -11 -4 -20 -8 -6 -15 -18 -15 -26 2 -34 -3 -46 -19 -45 -30 2 -30
-19 0 -22 15 -2 27 -8 27 -13 0 -16 48 -10 54 7 9 23 1 28 -23 13 -27 -17 -39
-4 -18 19 12 13 14 21 6 29 -13 13 -2 36 12 28 15 -10 10 11 -5 25 -8 6 -12
18 -9 27 5 13 0 14 -25 8 -29 -6 -32 -5 -32 19 0 16 -6 26 -15 26 -21 0 -19
17 3 24 10 3 23 19 29 36 8 21 16 28 27 24 12 -5 16 0 16 17 0 32 16 13 28
-34z m1029 6 c-16 -16 -17 -15 -17 17 0 32 1 33 17 17 16 -16 16 -18 0 -34z
m225 25 c-7 -7 -12 -8 -12 -2 0 14 12 26 19 19 2 -3 -1 -11 -7 -17z m-172 2
c0 -5 -5 -10 -11 -10 -5 0 -7 5 -4 10 3 6 8 10 11 10 2 0 4 -4 4 -10z m-316
-27 c-4 -16 -17 -39 -29 -53 -12 -14 -28 -35 -34 -47 -10 -19 -9 -23 4 -23 10
0 15 -10 15 -30 0 -35 8 -37 44 -9 15 11 33 19 40 16 15 -6 46 22 46 41 0 19
15 14 39 -14 27 -31 80 -54 134 -59 45 -4 73 -26 64 -49 -6 -14 -9 -14 -28 5
-15 15 -24 18 -32 10 -15 -15 -27 -14 -27 4 0 9 -12 20 -27 25 -16 6 -35 14
-43 19 -28 15 -80 23 -80 12 0 -6 9 -11 20 -11 11 0 20 -4 20 -10 0 -5 8 -10
18 -10 9 0 26 -7 36 -15 19 -14 18 -15 -10 -17 -16 0 -33 -2 -39 -3 -5 -2 -17
-3 -25 -4 -8 -1 9 -17 37 -35 52 -33 58 -46 21 -46 -10 0 -18 -7 -18 -16 0
-13 -6 -11 -25 10 -26 29 -55 35 -55 11 0 -8 -7 -15 -16 -15 -11 0 -14 5 -10
16 5 12 2 15 -10 10 -13 -5 -15 -2 -11 14 4 15 0 20 -15 20 -17 0 -18 2 -4 15
18 19 25 19 47 -1 12 -11 19 -12 24 -4 4 7 -2 14 -14 17 -21 5 -30 23 -11 23
15 0 12 17 -5 24 -8 3 -28 -6 -44 -19 -35 -30 -41 -31 -41 -6 0 10 -7 22 -16
25 -9 4 -14 9 -11 12 9 10 -21 36 -33 29 -20 -12 -9 12 15 35 14 13 25 28 25
33 0 9 61 96 68 97 1 0 -1 -12 -4 -27z m861 18 c3 -5 1 -12 -5 -16 -5 -3 -10
1 -10 9 0 18 6 21 15 7z m245 -1 c0 -5 -7 -10 -16 -10 -8 0 -12 5 -9 10 3 6
10 10 16 10 5 0 9 -4 9 -10z m-909 -51 c-15 -24 -28 -33 -53 -36 -18 -1 -28 0
-22 5 6 4 16 17 23 30 6 12 20 22 30 22 11 0 22 8 26 18 4 10 9 12 12 6 2 -7
-5 -27 -16 -45z m-371 32 c0 -18 -64 -71 -74 -61 -15 15 31 59 72 69 1 1 2 -3
2 -8z m250 -1 c0 -5 -5 -10 -11 -10 -5 0 -7 5 -4 10 3 6 8 10 11 10 2 0 4 -4
4 -10z m275 0 c3 -5 1 -10 -4 -10 -6 0 -11 5 -11 10 0 6 2 10 4 10 3 0 8 -4
11 -10z m253 -2 c-2 -6 -10 -14 -16 -16 -7 -2 -10 2 -6 12 7 18 28 22 22 4z
m372 2 c0 -5 -5 -10 -11 -10 -5 0 -7 5 -4 10 3 6 8 10 11 10 2 0 4 -4 4 -10z
m-1896 -25 c-4 -8 -10 -15 -15 -15 -5 0 -9 -5 -9 -11 0 -5 5 -7 10 -4 6 3 10
-1 10 -10 0 -8 7 -18 15 -21 23 -9 19 -37 -5 -31 -12 3 -18 1 -14 -5 4 -6 0
-15 -7 -20 -10 -7 -7 -7 9 -3 13 4 22 2 22 -4 0 -13 -45 -25 -59 -16 -17 10
-13 45 5 45 14 0 15 7 10 41 -4 26 -2 46 5 55 15 19 30 18 23 -1z m1420 9 c18
-7 22 -25 5 -21 -6 1 -13 -3 -16 -10 -6 -16 36 -28 50 -14 6 6 19 11 29 11 15
0 16 -4 7 -26 -12 -32 -7 -40 13 -20 13 13 20 13 59 0 29 -11 45 -12 47 -5 2
6 10 11 17 11 7 0 15 9 18 20 3 11 12 20 20 20 10 0 13 -7 10 -20 -4 -15 0
-20 13 -20 32 -1 53 -24 50 -54 -2 -23 -14 -34 -62 -60 -32 -17 -64 -37 -70
-46 -10 -12 -14 -12 -28 -1 -13 11 -17 11 -22 -2 -8 -21 -34 -30 -49 -17 -9 8
-15 8 -20 0 -3 -5 -14 -10 -23 -10 -12 0 -8 9 17 30 25 22 40 28 57 24 21 -5
24 -3 24 20 0 21 -5 26 -26 26 -14 0 -23 4 -19 9 9 15 -13 23 -34 12 -15 -8
-22 -6 -33 11 -13 19 -15 20 -31 4 -22 -23 -21 -32 3 -39 23 -6 27 -27 6 -27
-8 0 -21 7 -29 15 -13 12 -17 12 -32 -5 -14 -15 -15 -23 -6 -33 8 -11 8 -17
-1 -24 -21 -17 -56 -24 -63 -13 -3 5 -15 10 -26 10 -24 0 -23 34 1 36 8 1 19
2 24 3 5 0 3 8 -4 16 -13 15 -10 17 25 19 13 1 19 7 17 18 -1 9 2 19 7 22 5 3
7 15 4 27 -4 12 0 25 8 29 11 7 10 13 -5 29 -23 25 -10 27 22 5 18 -12 23 -13
21 -3 -2 21 0 49 5 49 2 0 11 -3 20 -6z m-3604 -24 c0 -5 -4 -10 -10 -10 -5 0
-10 5 -10 10 0 6 5 10 10 10 6 0 10 -4 10 -10z m2706 -50 c6 0 9 -13 6 -29 -3
-26 -6 -27 -27 -17 -12 6 -21 16 -18 22 2 7 -3 26 -11 43 -24 45 -19 50 13 14
15 -18 32 -33 37 -33z m444 55 c0 -11 -45 -55 -56 -55 -7 0 -15 -6 -18 -12 -3
-7 -4 -4 -3 7 2 11 8 19 15 18 6 -2 19 8 29 22 16 22 33 32 33 20z m920 -5 c0
-5 -5 -10 -11 -10 -6 0 -9 -7 -5 -15 3 -8 1 -15 -4 -15 -6 0 -10 -9 -10 -19 0
-10 -7 -21 -15 -24 -17 -7 -30 9 -14 18 5 4 8 14 4 22 -3 9 3 24 12 34 20 20
43 25 43 9z m-730 -14 c0 -16 -18 -31 -27 -22 -8 8 5 36 17 36 5 0 10 -6 10
-14z m475 4 c3 -5 -1 -10 -9 -10 -9 0 -16 5 -16 10 0 6 4 10 9 10 6 0 13 -4
16 -10z m-1246 -59 c25 -22 32 -33 26 -50 -10 -33 -37 -27 -29 7 4 15 4 24 0
20 -10 -8 -46 23 -46 39 0 20 12 16 49 -16z m71 19 c0 -5 -7 -7 -15 -4 -8 4
-15 8 -15 10 0 2 7 4 15 4 8 0 15 -4 15 -10z m350 6 c0 -3 -4 -8 -10 -11 -5
-3 -10 -1 -10 4 0 6 5 11 10 11 6 0 10 -2 10 -4z m-40 -36 c0 -12 -28 -25 -36
-17 -9 9 6 27 22 27 8 0 14 -5 14 -10z m-850 -30 c0 -5 -4 -10 -10 -10 -5 0
-10 5 -10 10 0 6 5 10 10 10 6 0 10 -4 10 -10z m788 -8 c6 -18 -15 -14 -22 4
-4 10 -1 14 6 12 6 -2 14 -10 16 -16z m132 -42 c0 -9 -6 -22 -12 -29 -11 -10
-7 -11 17 -6 l30 7 -25 -21 c-22 -18 -26 -19 -37 -5 -8 11 -13 12 -18 4 -4 -6
0 -19 9 -29 9 -10 16 -23 16 -29 0 -7 7 -12 15 -12 8 0 15 -7 15 -15 0 -8 5
-15 11 -15 16 0 69 -52 63 -62 -3 -4 2 -8 10 -8 8 0 18 -9 21 -20 3 -11 13
-20 21 -20 8 0 14 -7 14 -15 0 -8 6 -15 14 -15 7 0 16 -9 19 -20 7 -27 -17
-13 -74 43 -25 24 -52 48 -61 53 -22 13 -102 112 -127 159 -29 55 -28 75 3 46
18 -17 26 -19 31 -10 5 7 1 17 -10 25 -10 7 -15 20 -12 28 5 14 10 13 37 -2
16 -9 30 -24 30 -32z m430 40 c0 -5 -2 -10 -4 -10 -3 0 -8 5 -11 10 -3 6 -1
10 4 10 6 0 11 -4 11 -10z m520 -20 c-12 -22 -25 -26 -35 -10 -9 15 4 30 26
30 17 0 18 -3 9 -20z m-3925 -41 c-6 -17 -3 -18 18 -10 19 7 27 6 30 -4 6 -15
-30 -25 -68 -17 -28 5 -34 22 -8 22 15 0 15 1 0 18 -27 29 -21 45 8 26 18 -12
24 -22 20 -35z m2045 30 c0 -11 -4 -17 -10 -14 -5 3 -10 1 -10 -6 0 -16 -31
-38 -52 -39 -10 0 -18 7 -18 15 0 8 5 15 10 15 6 0 10 6 10 13 0 12 34 33 58
36 6 0 12 -8 12 -20z m-2100 -14 c0 -8 -4 -15 -10 -15 -5 0 -10 7 -10 15 0 8
5 15 10 15 6 0 10 -7 10 -15z m2494 -9 c-6 -16 -24 -13 -24 5 0 6 5 7 10 4 6
-3 10 -1 10 6 0 7 2 10 5 7 3 -3 3 -13 -1 -22z m1451 -6 c3 -5 1 -10 -4 -10
-6 0 -11 5 -11 10 0 6 2 10 4 10 3 0 8 -4 11 -10z m110 4 c14 -6 10 -13 -21
-40 -56 -50 -74 -41 -33 17 21 31 27 33 54 23z m-2087 -51 c-4 -22 -22 -20
-26 1 -2 10 3 16 13 16 10 0 15 -7 13 -17z m1970 6 c-2 -6 -8 -10 -13 -10 -5
0 -11 4 -13 10 -2 6 4 11 13 11 9 0 15 -5 13 -11z m-1203 -18 c9 -15 -42 -64
-60 -57 -19 7 -3 37 29 53 11 6 22 11 23 12 1 0 4 -3 8 -8z m355 0 c0 -13 -29
-35 -37 -28 -7 8 15 37 28 37 5 0 9 -4 9 -9z m665 -17 c-9 -9 -19 -13 -23 -10
-3 4 0 11 8 16 24 15 33 11 15 -6z m510 6 c-3 -5 -11 -10 -16 -10 -6 0 -7 5
-4 10 3 6 11 10 16 10 6 0 7 -4 4 -10z m-820 -10 c3 -5 -1 -10 -9 -10 -9 0
-16 5 -16 10 0 6 4 10 9 10 6 0 13 -4 16 -10z m-3382 -20 c3 -13 -1 -24 -14
-30 -11 -6 -19 -21 -19 -35 0 -22 -3 -24 -47 -22 -40 2 -49 6 -51 22 -1 11 4
29 12 40 12 16 16 17 30 6 11 -9 16 -10 16 -2 0 6 9 11 19 11 10 0 21 7 25 15
8 21 23 19 29 -5z m3067 5 c10 -13 10 -19 -5 -35 -18 -20 -18 -20 -32 0 -12
17 -12 24 -3 35 16 19 24 19 40 0z m815 -15 c-10 -11 -22 -17 -28 -13 -6 4 -1
14 13 25 29 23 39 15 15 -12z m-1295 10 c0 -5 -7 -10 -16 -10 -8 0 -12 5 -9
10 3 6 10 10 16 10 5 0 9 -4 9 -10z m1490 1 c0 -13 -26 -32 -33 -24 -8 7 11
33 24 33 5 0 9 -4 9 -9z m-900 -10 c0 -12 -28 -22 -34 -12 -3 5 -3 11 1 15 9
9 33 7 33 -3z m176 -6 c4 -8 12 -15 20 -15 7 0 11 -6 8 -14 -3 -8 -1 -17 5
-21 7 -4 11 4 11 19 0 14 3 26 6 26 12 0 29 -26 30 -47 0 -19 -5 -23 -27 -23
-15 0 -29 7 -33 15 -3 8 -12 15 -21 15 -8 0 -15 6 -15 14 0 8 -3 21 -6 30 -3
9 -1 16 5 16 7 0 14 -7 17 -15z m-490 -49 c-8 -20 -15 -39 -16 -41 0 -3 0 -15
-1 -27 0 -22 -1 -22 -9 -3 -5 11 -9 16 -9 10 -2 -14 -21 17 -21 34 0 8 6 11
15 7 9 -3 15 0 15 9 0 8 -5 14 -11 13 -24 -6 -18 18 9 33 36 22 47 9 28 -35z
m579 44 c3 -5 1 -10 -4 -10 -6 0 -11 5 -11 10 0 6 2 10 4 10 3 0 8 -4 11 -10z
m295 -5 c0 -8 -7 -15 -15 -15 -8 0 -19 -8 -24 -19 -13 -23 -70 -33 -88 -15
-17 17 -16 21 7 27 12 3 20 0 20 -8 0 -20 36 -7 57 21 20 27 43 32 43 9z m100
-10 c0 -15 -40 -37 -50 -28 -5 4 37 43 46 43 2 0 4 -7 4 -15z m-1634 -11 c-3
-9 -6 -23 -7 -32 0 -14 -2 -13 -9 3 -13 31 -11 45 6 45 11 0 14 -5 10 -16z
m281 -10 c-9 -9 -28 6 -21 18 4 6 10 6 17 -1 6 -6 8 -13 4 -17z m653 -1 c0 -9
-34 -32 -47 -33 -19 0 -16 21 4 35 16 12 43 10 43 -2z m434 -5 c3 -13 6 -26 6
-30 0 -13 -44 -8 -63 6 -16 13 -16 14 5 29 32 22 45 21 52 -5z m566 -8 c0 -4
-6 -10 -12 -13 -8 -3 -14 5 -14 20 -2 19 1 22 12 12 8 -6 14 -15 14 -19z
m-1465 8 c8 -8 -65 -29 -77 -22 -4 3 -8 0 -8 -5 0 -6 -7 -11 -15 -11 -25 0
-17 16 14 32 31 15 74 18 86 6z m815 -27 c0 -5 -7 -11 -15 -15 -9 -3 -15 0
-15 9 0 8 7 15 15 15 8 0 15 -4 15 -9z m305 -11 c-3 -5 -15 -10 -26 -10 -11 0
-17 5 -14 10 3 6 15 10 26 10 11 0 17 -4 14 -10z m-602 -15 c0 -6 -7 -11 -16
-13 -12 -3 -15 1 -11 13 7 17 25 17 27 0z m-1528 -15 c-10 -11 -23 -20 -28
-20 -6 0 -2 9 8 20 10 11 23 20 28 20 6 0 2 -9 -8 -20z m1255 -23 c0 -18 -2
-19 -10 -7 -13 20 -13 43 0 35 6 -3 10 -16 10 -28z m690 26 c0 -11 -51 -33
-61 -27 -5 3 -6 -2 -3 -10 8 -21 2 -20 -43 4 -21 11 -43 20 -50 20 -7 0 -13 5
-13 10 0 6 35 10 85 10 47 0 85 -3 85 -7z m494 -34 c21 3 21 3 3 -17 -11 -12
-16 -26 -12 -31 3 -6 -1 -11 -9 -11 -8 0 -18 5 -21 10 -3 6 -1 10 4 10 6 0 11
5 11 10 0 6 -7 10 -15 10 -8 0 -15 -6 -15 -14 0 -22 -37 -30 -55 -12 -21 21
-20 23 23 45 28 15 40 16 51 8 8 -7 24 -10 35 -8z m-1464 -3 c0 -18 -17 -29
-30 -21 -8 5 -7 11 1 21 15 18 29 18 29 0z m600 -5 c0 -6 -4 -13 -10 -16 -5
-3 -10 1 -10 9 0 9 5 16 10 16 6 0 10 -4 10 -9z m124 -6 c-5 -12 -10 -13 -20
-4 -19 15 -18 19 6 19 13 0 18 -5 14 -15z m-400 -1 c17 -7 22 -34 6 -34 -5 0
-14 9 -20 20 -12 22 -10 23 14 14z m493 -25 c-6 -10 -15 -19 -20 -19 -4 0 -5
-4 -2 -10 11 -18 31 -11 45 15 16 31 26 32 33 4 9 -32 -21 -71 -47 -63 -11 3
-26 12 -32 20 -6 8 -15 14 -19 14 -9 0 -34 31 -35 43 0 5 5 5 10 2 6 -3 10 -1
10 6 0 10 3 10 12 1 16 -16 28 -15 28 3 0 8 6 12 15 9 11 -5 12 -10 2 -25z
m-527 -21 c0 -10 -4 -18 -10 -18 -5 0 -10 15 -10 33 0 24 3 28 10 17 5 -8 10
-23 10 -32z m940 32 c0 -10 -2 -11 -35 -15 -28 -3 -65 -23 -65 -36 0 -12 -70
-43 -78 -35 -3 3 0 6 6 6 7 0 12 6 12 13 0 15 71 58 110 68 39 10 50 10 50 -1z
m-560 -7 c-1 -13 -29 -59 -30 -48 0 21 13 55 21 55 5 0 9 -3 9 -7z m-265 -34
c11 -17 -1 -21 -15 -4 -8 9 -8 15 -2 15 6 0 14 -5 17 -11z m170 -9 c3 -5 -1
-10 -10 -10 -9 0 -13 5 -10 10 3 6 8 10 10 10 2 0 7 -4 10 -10z m-1661 -15 c3
-8 0 -14 -7 -12 -7 1 -13 -11 -15 -28 -5 -42 -18 -52 -26 -20 -5 18 -1 36 9
51 18 28 30 30 39 9z m905 -37 c-24 -21 -53 -38 -63 -38 -16 0 -17 3 -8 12 7
7 12 19 12 28 1 19 59 48 84 42 17 -5 14 -11 -25 -44z m-2389 28 c0 -7 9 -16
20 -19 12 -3 20 -14 20 -26 0 -12 6 -21 15 -21 8 0 15 -3 14 -7 -3 -21 16 -50
44 -68 20 -13 34 -33 42 -60 8 -29 16 -41 33 -43 19 -3 22 1 22 28 0 20 4 30
12 28 12 -4 41 -47 54 -78 3 -8 11 -25 17 -38 8 -17 8 -28 -1 -42 -7 -11 -12
-32 -12 -47 0 -22 8 -31 33 -43 23 -11 33 -23 35 -43 2 -15 8 -25 13 -22 5 4
9 -1 9 -10 0 -8 8 -19 17 -22 15 -6 14 -7 -3 -14 -19 -7 -19 -7 0 -15 30 -12
56 -42 56 -64 0 -11 7 -23 15 -26 8 -3 19 -22 26 -42 6 -21 18 -42 26 -49 9
-7 13 -19 9 -28 -5 -13 -1 -15 16 -10 17 6 19 5 8 -7 -10 -11 -22 -11 -57 -4
-23 6 -43 16 -43 22 0 6 -12 17 -27 25 -16 7 -43 31 -61 51 -19 21 -39 38 -46
38 -7 0 -22 12 -32 26 -10 15 -29 36 -40 48 -12 11 -24 34 -28 49 -4 15 -17
32 -29 37 -12 5 -34 24 -49 42 -15 18 -41 49 -58 69 -16 20 -30 42 -30 48 0 7
-4 9 -10 6 -5 -3 -7 0 -4 8 3 8 -8 28 -25 45 -17 17 -31 36 -31 44 0 10 -2 10
-9 -1 -7 -10 -11 -6 -15 15 -7 28 -38 74 -51 74 -3 0 -12 5 -19 12 -11 10 -11
15 1 26 11 11 23 12 52 5 33 -9 40 -8 50 10 10 16 10 21 0 28 -7 4 -17 5 -21
3 -11 -7 -10 19 2 50 10 27 40 36 40 12z m2880 4 c0 -5 -4 -10 -10 -10 -5 0
-10 5 -10 10 0 6 5 10 10 10 6 0 10 -4 10 -10z m296 -17 c-10 -10 -19 5 -10
18 6 11 8 11 12 0 2 -7 1 -15 -2 -18z m-986 -22 c0 -11 -4 -23 -10 -26 -6 -4
-10 5 -10 19 0 14 5 26 10 26 6 0 10 -9 10 -19z m90 9 c0 -5 -5 -10 -11 -10
-5 0 -7 5 -4 10 3 6 8 10 11 10 2 0 4 -4 4 -10z m509 -3 c6 -8 8 -17 4 -20 -7
-8 -33 11 -33 24 0 13 16 11 29 -4z m463 -29 c10 -10 24 -18 32 -18 16 0 46
-26 46 -41 0 -5 -21 5 -47 21 -54 34 -93 65 -93 74 0 8 39 -15 62 -36z m105 8
c-4 -9 -11 -16 -17 -16 -17 0 -24 31 -9 41 18 11 34 -5 26 -25z m333 24 c0 -5
-9 -10 -21 -10 -11 0 -17 5 -14 10 3 6 13 10 21 10 8 0 14 -4 14 -10z m-1050
-10 c0 -5 -2 -10 -4 -10 -3 0 -8 5 -11 10 -3 6 -1 10 4 10 6 0 11 -4 11 -10z
m993 -7 c-7 -2 -19 -2 -25 0 -7 3 -2 5 12 5 14 0 19 -2 13 -5z m270 0 c-7 -2
-19 -2 -25 0 -7 3 -2 5 12 5 14 0 19 -2 13 -5z m220 0 c-7 -2 -19 -2 -25 0 -7
3 -2 5 12 5 14 0 19 -2 13 -5z m-2703 -13 c0 -5 -5 -10 -11 -10 -5 0 -7 5 -4
10 3 6 8 10 11 10 2 0 4 -4 4 -10z m688 -39 c3 -10 0 -12 -12 -8 -28 11 -47
-2 -35 -24 7 -13 6 -19 -1 -19 -7 0 -9 -8 -5 -19 4 -14 0 -21 -15 -26 -11 -3
-20 -14 -20 -23 -1 -15 -2 -14 -12 2 -9 16 -6 22 13 37 20 15 21 19 9 34 -13
15 -11 20 15 41 32 26 55 28 63 5z m62 9 c0 -5 -4 -10 -10 -10 -5 0 -10 5 -10
10 0 6 5 10 10 10 6 0 10 -4 10 -10z m480 0 c0 -5 7 -10 15 -10 21 0 19 -19
-2 -27 -10 -4 -21 -10 -24 -15 -9 -14 -38 2 -33 18 2 8 6 21 9 29 5 17 35 21
35 5z m473 -5 c-1 -5 -25 -17 -53 -26 -28 -8 -55 -21 -60 -29 -5 -8 -18 -11
-39 -7 -16 4 -33 2 -36 -3 -3 -6 4 -10 16 -10 22 0 19 -12 -4 -16 -7 -1 -20
-5 -29 -9 -22 -9 -22 2 -3 49 14 34 18 36 60 36 25 0 45 4 45 9 0 5 10 12 23
14 36 8 82 3 80 -8z m-558 -14 c3 -6 -4 -15 -15 -21 -22 -12 -23 -10 -14 14 7
18 20 21 29 7z m805 -35 c14 -18 14 -19 -8 -7 -12 7 -20 17 -16 22 3 6 7 9 8
7 1 -2 8 -12 16 -22z m-1360 -1 c0 -9 -11 -21 -25 -27 -14 -6 -25 -14 -25 -18
0 -9 -45 -27 -87 -34 -25 -4 -31 -2 -26 9 3 8 18 15 33 15 22 0 29 5 32 23 2
16 11 23 33 25 17 2 34 8 40 13 14 14 25 11 25 -6z m500 6 c0 -10 -30 -24 -37
-17 -3 3 -2 9 2 15 8 13 35 15 35 2z m-50 -40 c0 -17 -5 -33 -11 -36 -17 -11
-23 3 -9 20 8 10 9 15 1 15 -6 0 -11 7 -11 15 0 8 7 15 15 15 10 0 15 -10 15
-29z m130 10 c0 -14 -6 -17 -25 -13 -31 5 -32 19 -2 25 12 2 23 5 25 6 1 0 2
-7 2 -18z m-60 -1 c0 -5 -4 -10 -10 -10 -5 0 -10 5 -10 10 0 6 5 10 10 10 6 0
10 -4 10 -10z m555 -18 c-8 -8 -25 10 -19 20 4 6 9 5 15 -3 4 -7 6 -15 4 -17z
m-458 -27 c3 -9 3 -18 1 -21 -11 -10 -48 -12 -53 -3 -10 16 -25 0 -25 -27 0
-14 -6 -27 -14 -30 -8 -3 -13 -11 -10 -18 2 -6 -3 -20 -12 -31 -8 -11 -13 -14
-9 -7 4 7 0 24 -9 37 -10 16 -12 26 -5 30 6 4 13 4 16 1 12 -11 31 15 26 34
-4 14 0 20 11 20 9 0 16 4 16 9 0 8 11 12 53 20 4 0 10 -6 14 -14z m688 -4
c-3 -6 -11 -11 -17 -11 -6 0 -6 6 2 15 14 17 26 13 15 -4z m-915 -7 c0 -25
-19 -54 -36 -54 -9 0 -12 5 -8 11 5 9 -1 10 -20 5 -21 -5 -26 -3 -26 11 0 19
30 37 68 41 14 1 22 -4 22 -14z m800 -3 c0 -5 -12 -11 -27 -13 -16 -3 -36 -9
-45 -13 -11 -4 -18 -3 -18 4 0 6 15 15 33 20 43 12 57 13 57 2z m-450 -11 c0
-5 -4 -10 -10 -10 -5 0 -10 -5 -10 -11 0 -6 7 -9 15 -5 9 3 15 0 15 -9 0 -8
-8 -15 -18 -15 -10 0 -23 -5 -30 -12 -23 -23 -24 2 -1 37 24 34 39 44 39 25z
m-520 -39 c0 -5 -7 -14 -15 -21 -12 -10 -15 -10 -15 2 0 8 3 18 7 21 9 10 23
9 23 -2z m217 -48 c-10 -10 -17 -12 -21 -4 -4 6 -2 11 3 11 6 0 11 8 11 18 0
28 15 37 18 12 2 -13 -3 -29 -11 -37z m603 22 c-7 -8 -18 -15 -25 -15 -8 0
-15 -5 -17 -11 -2 -7 -11 -10 -18 -7 -10 4 -2 12 23 23 20 11 37 23 37 29 0 5
3 6 6 3 4 -4 1 -13 -6 -22z m140 21 c0 -2 -7 -7 -16 -10 -8 -3 -12 -2 -9 4 6
10 25 14 25 6z m-900 -57 c0 -15 -50 -43 -60 -33 -14 14 32 65 47 52 7 -6 13
-14 13 -19z m811 11 c-13 -11 -28 -20 -35 -20 -6 1 0 10 13 20 13 11 28 20 35
20 6 -1 0 -10 -13 -20z m-1012 -34 c7 -16 22 -31 32 -33 23 -6 26 -33 4 -33
-9 0 -27 -7 -40 -16 -14 -9 -31 -14 -39 -11 -7 3 -18 1 -24 -5 -6 -6 -16 -6
-30 3 -16 10 -23 9 -42 -9 -13 -12 -27 -19 -32 -16 -5 3 -20 -1 -33 -10 -13
-9 -31 -13 -39 -10 -19 7 -32 -34 -16 -50 8 -8 14 -7 21 7 6 9 17 17 24 17 25
0 16 -17 -17 -33 -23 -11 -36 -12 -49 -4 -21 13 -31 57 -18 74 7 7 5 13 -3 16
-7 3 -4 6 8 6 11 1 29 10 39 21 19 21 50 26 60 10 15 -24 139 10 156 42 9 17
8 19 -8 14 -10 -3 -31 -8 -48 -11 -26 -5 -27 -4 -7 4 12 6 22 15 22 21 0 5 7
10 15 10 8 0 15 7 15 16 0 25 33 12 49 -20z m623 2 c-9 -9 -12 -7 -12 12 0 19
3 21 12 12 9 -9 9 -15 0 -24z m248 24 c0 -4 -12 -15 -27 -23 -30 -17 -66 -14
-60 4 6 18 87 36 87 19z m258 -12 c-7 -10 -14 -17 -17 -15 -4 4 18 35 25 35 2
0 -1 -9 -8 -20z m-38 -54 c0 -14 -45 -85 -48 -76 -5 14 29 80 40 80 5 0 8 -2
8 -4z m-400 -21 c0 -8 -4 -15 -10 -15 -5 0 -10 7 -10 15 0 8 5 15 10 15 6 0
10 -7 10 -15z m220 6 c0 -13 -39 -58 -40 -46 0 10 31 55 38 55 1 0 2 -4 2 -9z
m88 -27 c-1 -23 -9 -39 -21 -45 -31 -17 -43 -4 -14 15 17 12 27 27 27 42 0 13
2 24 5 24 3 0 5 -16 3 -36z m-358 -9 c0 -7 6 -16 13 -19 6 -3 1 -3 -13 0 -32
8 -34 10 -26 29 7 18 26 11 26 -10z m-590 -25 c0 -5 -2 -10 -4 -10 -3 0 -8 5
-11 10 -3 6 -1 10 4 10 6 0 11 -4 11 -10z m-90 -35 c-7 -8 -16 -12 -21 -9 -13
8 -1 24 18 24 13 0 13 -3 3 -15z m900 6 c0 -5 -7 -14 -15 -21 -8 -7 -15 -20
-15 -28 0 -13 -3 -13 -12 -4 -9 9 -10 15 -2 20 6 4 13 15 17 25 7 17 27 24 27
8z m-743 -33 c-3 -8 -6 -5 -6 6 -1 11 2 17 5 13 3 -3 4 -12 1 -19z m873 -1 c0
-7 -13 -18 -30 -24 -24 -9 -30 -9 -30 2 0 11 19 22 58 34 1 1 2 -5 2 -12z
m-10 -98 c-29 -57 -62 -142 -76 -189 -19 -69 -22 -75 -17 -35 3 28 17 79 29
115 13 36 24 66 24 68 0 2 -16 -9 -35 -24 -20 -15 -38 -24 -41 -21 -10 10 7
27 27 27 14 0 19 7 19 26 0 23 3 25 24 20 24 -6 42 13 37 42 -1 6 3 12 8 12 6
0 18 16 27 35 9 20 19 34 21 31 2 -2 -19 -50 -47 -107z m-1310 87 c0 -3 -4 -8
-10 -11 -5 -3 -10 -1 -10 4 0 6 5 11 10 11 6 0 10 -2 10 -4z m1228 -44 c-13
-6 -38 18 -38 37 0 12 6 10 24 -9 12 -14 19 -27 14 -28z m-48 22 c0 -18 -24
-44 -41 -44 -26 0 -22 33 6 42 27 8 35 9 35 2z m-1097 -20 c3 -3 3 -13 0 -21
-5 -12 -7 -12 -14 -1 -15 23 -4 40 14 22z m377 -98 c-20 -20 -76 -34 -65 -17
8 14 42 29 65 30 13 1 13 -1 0 -13z m-305 -16 c3 -5 1 -10 -4 -10 -6 0 -11 5
-11 10 0 6 2 10 4 10 3 0 8 -4 11 -10z m-110 -23 c-6 -15 -72 -33 -83 -23 -3
3 15 14 39 25 48 22 52 21 44 -2z m295 -7 c0 -5 -5 -10 -11 -10 -10 0 -99 -57
-109 -70 -10 -13 -153 -80 -159 -75 -13 14 68 73 164 118 107 51 115 53 115
37z m834 -17 c-4 -16 -7 -28 -8 -29 -36 -23 -80 -44 -84 -40 -8 8 19 36 35 36
8 0 19 14 24 30 14 39 42 41 33 3z m-1054 7 c0 -5 -4 -10 -10 -10 -5 0 -10 5
-10 10 0 6 5 10 10 10 6 0 10 -4 10 -10z m-290 -34 c0 -3 -4 -8 -10 -11 -5 -3
-10 -1 -10 4 0 6 5 11 10 11 6 0 10 -2 10 -4z m203 -24 c-10 -7 -24 -10 -31
-7 -8 3 -21 0 -28 -6 -8 -6 -14 -7 -14 -2 0 19 25 33 57 30 30 -2 31 -3 16
-15z m-62 -69 c-10 -17 -10 -16 -11 3 0 23 13 41 18 25 2 -6 -1 -18 -7 -28z
m-81 -14 c0 -11 -4 -18 -10 -14 -5 3 -7 12 -3 20 7 21 13 19 13 -6z m1290 1
c0 -5 -4 -10 -10 -10 -5 0 -10 5 -10 10 0 6 5 10 10 10 6 0 10 -4 10 -10z
m-2330 -60 c-8 -5 -19 -10 -25 -10 -5 0 -3 5 5 10 8 5 20 10 25 10 6 0 3 -5
-5 -10z m2355 -37 c-3 -21 -10 -42 -15 -46 -4 -5 -3 12 3 37 12 55 22 62 12 9z
m-735 17 c0 -5 -7 -10 -15 -10 -8 0 -15 5 -15 10 0 6 7 10 15 10 8 0 15 -4 15
-10z m-55 -21 c-8 -12 -35 -12 -35 0 0 11 22 20 33 14 4 -2 5 -9 2 -14z m-65
-36 c0 -8 -47 -33 -62 -33 -16 0 -7 16 15 26 27 14 47 17 47 7z m510 -22 c0
-6 -4 -13 -10 -16 -5 -3 -10 1 -10 9 0 9 5 16 10 16 6 0 10 -4 10 -9z m-660
-17 c0 -11 6 -14 23 -9 61 18 59 18 55 -7 -2 -15 -9 -22 -20 -20 -12 2 -18 -4
-18 -18 0 -11 -6 -20 -14 -20 -7 0 -16 -9 -19 -20 -3 -12 -14 -20 -26 -20 -12
0 -23 -6 -25 -12 -6 -20 -16 -41 -31 -67 l-13 -24 -4 23 c-3 25 -55 51 -67 33
-8 -13 -71 -43 -89 -43 -8 0 -12 -6 -8 -15 4 -12 2 -13 -13 -3 -25 16 -15 46
19 53 15 3 35 14 44 23 47 48 74 85 70 97 -6 15 51 46 70 39 7 -3 19 2 26 11
16 20 40 19 40 -1z m910 8 c0 -10 -50 -55 -56 -50 -2 2 6 16 18 31 21 27 38
35 38 19z m40 -12 c0 -5 -4 -10 -10 -10 -5 0 -10 5 -10 10 0 6 5 10 10 10 6 0
10 -4 10 -10z m-848 -32 c-9 -9 -12 -7 -12 12 0 19 3 21 12 12 9 -9 9 -15 0
-24z m738 15 c0 -16 -49 -68 -56 -60 -5 4 -4 11 2 15 6 4 14 17 18 30 7 20 36
32 36 15z m107 -109 c-9 -9 -28 6 -21 18 4 6 10 6 17 -1 6 -6 8 -13 4 -17z
m24 -55 l-9 -44 -1 41 c-1 22 2 44 6 47 12 12 13 1 4 -44z m-81 -21 c0 -34
-37 -101 -51 -92 -16 10 -9 36 11 41 16 4 20 14 20 50 0 27 4 42 10 38 6 -3
10 -20 10 -37z m-800 18 c0 -14 -34 -28 -44 -19 -7 7 17 32 32 33 6 0 12 -6
12 -14z m-100 -38 c0 -25 -12 -58 -21 -58 -10 0 -12 53 -2 63 10 11 23 8 23
-5z m96 -13 c-25 -19 -36 -19 -36 0 0 10 10 15 28 15 26 -1 26 -1 8 -15z
m-1191 -44 c5 -17 4 -22 -6 -19 -8 3 -15 18 -17 34 -4 33 11 24 23 -15z m1385
14 c0 -8 -5 -15 -10 -15 -6 0 -30 -9 -52 -20 -32 -15 -44 -17 -50 -8 -12 20
-9 28 11 28 11 0 23 5 26 11 4 6 12 8 19 6 6 -2 20 -1 31 4 11 4 21 8 23 8 1
1 2 -6 2 -14z m-529 -18 c-10 -9 -11 -8 -5 6 3 10 9 15 12 12 3 -3 0 -11 -7
-18z m-142 -39 c-12 -21 -13 -21 -17 -4 -2 10 2 22 9 27 20 12 22 4 8 -23z
m534 20 c12 -38 -24 -63 -51 -36 -10 10 -8 16 10 30 28 21 35 22 41 6z m782 2
c-3 -5 -13 -10 -21 -10 -8 0 -14 5 -14 10 0 6 9 10 21 10 11 0 17 -4 14 -10z
m-1165 -27 c0 -9 -6 -13 -14 -10 -7 3 -23 -1 -34 -9 -17 -12 -21 -12 -26 1 -3
9 5 20 21 29 31 16 53 11 53 -11z m1115 17 c3 -5 -1 -10 -10 -10 -9 0 -13 5
-10 10 3 6 8 10 10 10 2 0 7 -4 10 -10z m-1312 -80 c32 -16 36 -45 7 -53 -11
-3 -20 -12 -20 -21 0 -9 -7 -16 -15 -16 -18 0 -17 -3 -5 39 8 28 6 38 -10 59
-25 30 -26 55 -2 27 9 -12 29 -27 45 -35z m417 34 c0 -8 -4 -12 -10 -9 -5 3
-10 10 -10 16 0 5 5 9 10 9 6 0 10 -7 10 -16z m977 -6 c-3 -8 -6 -5 -6 6 -1
11 2 17 5 13 3 -3 4 -12 1 -19z m-912 2 c-3 -5 -11 -10 -16 -10 -6 0 -7 5 -4
10 3 6 11 10 16 10 6 0 7 -4 4 -10z m-125 -10 c0 -5 -5 -10 -11 -10 -5 0 -7 5
-4 10 3 6 8 10 11 10 2 0 4 -4 4 -10z m1000 -41 c0 -4 -13 -7 -30 -7 -27 1
-39 16 -24 31 7 7 54 -13 54 -24z m-882 -17 c6 -18 -15 -14 -22 4 -4 10 -1 14
6 12 6 -2 14 -10 16 -16z m-88 -29 c-1 -24 -2 -26 -11 -10 -5 9 -7 22 -4 27
10 17 15 11 15 -17z m1007 -5 c-3 -8 -6 -5 -6 6 -1 11 2 17 5 13 3 -3 4 -12 1
-19z m-2286 -49 c12 -24 17 -48 13 -61 -3 -12 -1 -24 6 -28 19 -12 4 -41 -16
-33 -43 16 -64 49 -64 100 0 47 14 78 32 67 4 -3 17 -23 29 -45z m904 41 c3
-5 1 -10 -4 -10 -6 0 -11 5 -11 10 0 6 2 10 4 10 3 0 8 -4 11 -10z m505 -11
c0 -19 -41 -69 -56 -69 -8 0 -13 -9 -11 -22 1 -15 -6 -26 -23 -35 -14 -7 -25
-20 -26 -30 -1 -10 -2 -33 -3 -51 0 -21 -10 -40 -27 -54 -18 -17 -23 -29 -19
-46 7 -28 -27 -64 -51 -55 -12 4 -12 8 3 18 15 11 15 15 4 29 -11 13 -11 20
-3 28 15 15 15 25 0 31 -7 2 0 3 15 1 27 -4 28 -2 22 26 -4 19 -3 30 4 30 6 0
11 -4 11 -10 0 -5 4 -10 9 -10 10 0 9 19 -1 35 -8 13 20 75 34 75 5 0 6 5 3
11 -4 5 15 32 42 58 47 48 73 61 73 40z m-210 -14 c0 -18 46 -21 54 -2 3 6 5
3 3 -8 -1 -11 -15 -26 -30 -33 -15 -7 -27 -18 -27 -25 0 -8 -3 -8 -12 1 -8 8
-8 15 2 27 17 21 1 19 -23 -2 -18 -16 -20 -16 -14 -1 3 10 0 19 -11 23 -14 5
-12 8 8 20 34 18 50 18 50 0z m1096 -118 c0 -82 -2 -111 -8 -87 -10 45 -12
147 -3 183 4 15 8 27 9 27 0 0 1 -55 2 -123z m-1236 99 c0 -2 -9 -6 -20 -9
-11 -3 -18 -1 -14 4 5 9 34 13 34 5z m70 -21 c-7 -9 -15 -13 -17 -11 -7 7 7
26 19 26 6 0 6 -6 -2 -15z m1101 -10 c-1 -6 -16 -30 -33 -55 -25 -35 -34 -41
-36 -27 -4 21 46 99 60 95 5 -2 9 -8 9 -13z m-1186 -35 c-3 -5 -11 -10 -16
-10 -6 0 -7 5 -4 10 3 6 11 10 16 10 6 0 7 -4 4 -10z m45 -3 c0 -8 15 -12 45
-12 28 0 41 -3 35 -9 -18 -18 -12 -56 9 -56 46 0 32 -29 -15 -35 -21 -2 -25 1
-21 16 3 11 2 21 -2 24 -11 6 -48 -35 -54 -60 -4 -16 -5 -16 -6 5 0 14 -10 31
-21 38 -11 7 -20 23 -20 36 0 20 4 23 21 19 19 -5 21 -3 15 20 -4 16 -2 27 4
27 5 0 10 -6 10 -13z m-68 -141 c-3 -27 -8 -33 -20 -28 -10 4 -12 7 -4 10 7 2
12 12 12 21 0 14 8 31 15 31 0 0 -1 -15 -3 -34z m-1349 -46 c-3 -17 -10 -30
-15 -30 -6 0 -8 7 -4 15 3 9 -3 24 -14 35 -26 26 -26 44 0 37 11 -3 20 0 21 6
0 7 4 2 9 -11 5 -12 7 -36 3 -52z m1497 54 c0 -3 -7 -12 -15 -21 -14 -14 -14
-17 2 -28 17 -13 17 -14 -2 -29 -26 -20 -28 -20 -41 7 -8 18 -6 27 15 50 23
25 41 35 41 21z m-1043 -46 c-3 -8 -6 -5 -6 6 -1 11 2 17 5 13 3 -3 4 -12 1
-19z m1188 2 c3 -5 1 -10 -4 -10 -6 0 -11 5 -11 10 0 6 2 10 4 10 3 0 8 -4 11
-10z m995 -52 c0 -64 -5 -60 -13 10 -4 32 -2 50 3 47 6 -4 10 -29 10 -57z
m-2731 -45 c-11 -35 -39 -36 -39 -2 0 10 -4 19 -9 19 -18 0 -21 33 -4 46 15
11 21 10 41 -9 20 -20 21 -27 11 -54z m1526 -23 c1 -30 5 -65 9 -77 5 -17 3
-23 -8 -23 -8 0 -17 10 -19 23 -3 16 -5 13 -6 -10 0 -18 -5 -33 -11 -33 -5 0
-9 18 -8 40 1 22 5 40 10 40 4 0 8 5 8 10 0 6 -7 10 -15 10 -20 0 -19 17 1 37
10 11 14 26 10 43 -3 15 -2 31 2 34 11 12 25 -36 27 -94z m222 38 c-3 -8 -6
-5 -6 6 -1 11 2 17 5 13 3 -3 4 -12 1 -19z m212 -39 c11 -24 11 -33 1 -39 -6
-4 -11 -11 -10 -16 1 -5 -2 -10 -7 -11 -4 -2 -8 20 -8 47 0 28 2 50 5 50 3 0
11 -14 19 -31z m-222 -16 c-9 -21 -13 -23 -15 -9 -5 24 6 49 18 41 6 -3 5 -16
-3 -32z m1012 -43 c0 -10 -3 -8 -9 5 -12 27 -12 43 0 25 5 -8 9 -22 9 -30z
m-952 14 c-3 -3 -12 -4 -19 -1 -8 3 -5 6 6 6 11 1 17 -2 13 -5z m-123 -98 c9
3 16 1 16 -6 0 -6 -4 -8 -10 -5 -5 3 -12 -6 -16 -20 -8 -32 -22 -32 -34 1 -12
31 -4 50 15 34 7 -6 20 -8 29 -4z m-174 -21 c0 -14 -4 -25 -10 -25 -5 0 -10
11 -10 25 0 14 5 25 10 25 6 0 10 -11 10 -25z m50 4 c0 -6 -4 -7 -10 -4 -5 3
-10 11 -10 16 0 6 5 7 10 4 6 -3 10 -11 10 -16z m190 -79 c0 -5 -4 -10 -10
-10 -5 0 -10 5 -10 10 0 6 5 10 10 10 6 0 10 -4 10 -10z m213 -21 c-4 -12 -14
-24 -25 -26 -10 -3 -18 -10 -18 -15 0 -5 -5 -6 -11 -2 -7 4 -1 16 17 35 35 34
44 36 37 8z m173 -43 c-3 -14 -11 -26 -17 -26 -7 0 -9 9 -5 23 3 12 6 29 6 37
0 10 3 11 11 3 7 -7 9 -23 5 -37z m-401 -6 c3 -5 -1 -10 -10 -10 -9 0 -13 5
-10 10 3 6 8 10 10 10 2 0 7 -4 10 -10z"/>
<path d="M2120 7752 c0 -5 7 -17 15 -28 15 -19 20 -8 9 20 -6 17 -24 22 -24 8z"/>
<path d="M2225 7670 c-3 -5 -1 -10 4 -10 6 0 11 5 11 10 0 6 -2 10 -4 10 -3 0
-8 -4 -11 -10z"/>
<path d="M2220 7580 c-13 -8 -12 -10 3 -10 9 0 17 5 17 10 0 12 -1 12 -20 0z"/>
<path d="M2720 7445 c0 -8 5 -15 10 -15 6 0 10 7 10 15 0 8 -4 15 -10 15 -5 0
-10 -7 -10 -15z"/>
<path d="M2750 7425 c0 -8 5 -15 10 -15 6 0 10 7 10 15 0 8 -4 15 -10 15 -5 0
-10 -7 -10 -15z"/>
<path d="M2712 7389 c2 -6 8 -10 13 -10 5 0 11 4 13 10 2 6 -4 11 -13 11 -9 0
-15 -5 -13 -11z"/>
<path d="M2645 7340 c-3 -5 -1 -10 4 -10 6 0 11 5 11 10 0 6 -2 10 -4 10 -3 0
-8 -4 -11 -10z"/>
<path d="M2580 7165 c-35 -18 -86 -37 -112 -40 -26 -4 -50 -11 -54 -16 -3 -5
-23 -9 -45 -9 -67 0 -123 -71 -64 -82 14 -3 30 1 36 8 6 8 28 14 48 15 l36 1
-30 13 c-20 9 -25 15 -15 18 8 2 31 9 50 16 19 7 56 19 82 27 26 8 50 19 53
24 3 6 13 10 22 10 8 0 28 11 45 25 39 33 26 31 -52 -10z"/>
<path d="M2050 7150 c0 -5 7 -10 15 -10 8 0 15 5 15 10 0 6 -7 10 -15 10 -8 0
-15 -4 -15 -10z"/>
<path d="M2028 7123 c7 -3 16 -2 19 1 4 3 -2 6 -13 5 -11 0 -14 -3 -6 -6z"/>
<path d="M2992 6633 c-10 -4 -10 -8 -1 -19 6 -8 16 -14 21 -14 6 0 6 6 -1 14
-9 11 -9 15 1 19 7 3 9 5 3 5 -5 0 -16 -2 -23 -5z"/>
<path d="M4554 6426 c-36 -16 -88 -86 -98 -133 -11 -48 21 -126 74 -181 63
-66 134 -112 173 -112 38 0 91 30 108 61 11 22 12 22 26 3 13 -16 89 -164 107
-207 5 -13 56 40 56 59 0 16 -97 218 -136 283 -45 75 -131 176 -173 205 -46
32 -97 40 -137 22z m140 -159 c53 -51 66 -89 40 -118 -13 -15 -25 -18 -44 -14
-70 18 -128 83 -114 128 18 61 57 63 118 4z"/>
<path d="M4620 6221 c0 -16 51 -51 74 -51 18 1 17 4 -14 30 -34 30 -60 39 -60
21z"/>
<path d="M3791 5640 c-55 -52 -101 -136 -101 -183 0 -25 12 -49 55 -106 35
-47 135 -130 179 -149 40 -17 105 -8 171 23 81 38 112 73 83 92 -7 4 -30 29
-51 55 -21 26 -43 53 -50 60 -23 25 -154 183 -181 221 -16 20 -34 37 -41 37
-6 0 -35 -22 -64 -50z"/>
<path d="M2920 3552 c0 -5 -10 -14 -22 -20 -15 -7 -17 -11 -8 -11 13 -1 13 -2
0 -11 -13 -8 -13 -10 2 -10 9 0 23 7 32 15 8 8 19 15 25 15 6 0 11 7 11 15 0
8 -9 15 -20 15 -11 0 -20 -4 -20 -8z"/>
<path d="M2938 3483 c7 -3 16 -2 19 1 4 3 -2 6 -13 5 -11 0 -14 -3 -6 -6z"/>
<path d="M3032 3463 c2 -9 9 -18 16 -21 18 -6 15 25 -4 32 -11 4 -14 1 -12
-11z"/>
<path d="M2929 3453 c-13 -8 -16 -12 -6 -9 15 5 16 3 7 -15 -11 -19 -9 -20 32
-17 35 2 43 7 43 22 0 27 -44 38 -76 19z"/>
<path d="M3280 2934 c0 -8 5 -12 10 -9 6 4 8 11 5 16 -9 14 -15 11 -15 -7z"/>
<path d="M7400 3960 c0 -5 5 -10 10 -10 6 0 10 5 10 10 0 6 -4 10 -10 10 -5 0
-10 -4 -10 -10z"/>
<path d="M7340 3040 c0 -5 4 -10 9 -10 6 0 13 5 16 10 3 6 -1 10 -9 10 -9 0
-16 -4 -16 -10z"/>
<path d="M5650 2825 c0 -8 7 -15 15 -15 9 0 12 6 9 15 -4 8 -10 15 -15 15 -5
0 -9 -7 -9 -15z"/>
<path d="M5755 2760 c-7 -12 2 -30 16 -30 12 0 12 27 0 35 -5 3 -12 1 -16 -5z"/>
<path d="M5610 2690 c0 -5 5 -10 10 -10 6 0 10 5 10 10 0 6 -4 10 -10 10 -5 0
-10 -4 -10 -10z"/>
<path d="M5695 2680 c-3 -5 -1 -10 4 -10 6 0 11 5 11 10 0 6 -2 10 -4 10 -3 0
-8 -4 -11 -10z"/>
<path d="M6950 2500 c0 -5 5 -10 10 -10 6 0 10 5 10 10 0 6 -4 10 -10 10 -5 0
-10 -4 -10 -10z"/>
<path d="M5372 1168 c-7 -7 -12 -16 -12 -20 0 -12 28 -10 36 3 10 17 -10 31
-24 17z"/>
<path d="M7635 3040 c-3 -5 -1 -10 4 -10 6 0 11 5 11 10 0 6 -2 10 -4 10 -3 0
-8 -4 -11 -10z"/>
<path d="M7610 3010 c0 -5 4 -10 9 -10 6 0 13 5 16 10 3 6 -1 10 -9 10 -9 0
-16 -4 -16 -10z"/>
<path d="M7652 3003 c5 -25 28 -28 28 -4 0 12 -6 21 -16 21 -9 0 -14 -7 -12
-17z"/>
<path d="M7500 2820 c0 -5 7 -10 15 -10 8 0 15 5 15 10 0 6 -7 10 -15 10 -8 0
-15 -4 -15 -10z"/>
<path d="M2795 1799 c-22 -5 -44 -14 -50 -20 -6 -6 -10 -62 -10 -130 0 -73 -4
-123 -11 -127 -22 -15 -34 -70 -31 -147 1 -56 -3 -92 -14 -120 -9 -22 -24 -76
-33 -120 -9 -44 -27 -123 -41 -175 -14 -52 -32 -131 -40 -175 -8 -44 -22 -109
-30 -145 -9 -36 -20 -93 -25 -128 -6 -34 -14 -81 -19 -105 -5 -23 -17 -98 -26
-167 -9 -69 -20 -136 -25 -150 -5 -14 -12 -40 -15 -58 l-7 -32 71 0 c70 0 71
0 71 27 0 15 11 74 24 132 40 173 64 288 92 431 14 74 32 169 40 210 8 41 22
113 30 160 8 47 23 121 33 165 45 186 51 216 51 254 0 22 -7 46 -15 55 -25 24
-16 52 36 110 15 16 32 47 38 70 7 23 22 74 35 113 12 40 20 75 18 78 -8 8
-103 4 -147 -6z"/>
<path d="M4382 1020 c0 -14 2 -19 5 -12 2 6 2 18 0 25 -3 6 -5 1 -5 -13z"/>
<path d="M7645 280 c-16 -11 -41 -27 -54 -37 -14 -10 -52 -38 -85 -62 -34 -24
-77 -56 -96 -70 -19 -15 -61 -44 -94 -66 l-58 -40 207 -3 c114 -1 210 -1 212
1 2 3 2 70 1 150 l-3 147 -30 -20z"/>
</g>
</svg>
